<svg xmlns="http://www.w3.org/2000/svg" xmlns:xlink="http://www.w3.org/1999/xlink" width="910" height="410" viewBox="0 0 910 410">
  <defs>
    <linearGradient id="linear-gradient" x1="218.5" y1="1132.95" x2="271.05" y2="1142.91" gradientTransform="matrix(1, 0, 0, -1, 0, 1392.31)" gradientUnits="userSpaceOnUse">
      <stop offset="0" stop-color="#4572f0"/>
      <stop offset="0.37" stop-color="#5d86f8"/>
      <stop offset="0.72" stop-color="#6c92fd"/>
      <stop offset="1" stop-color="#7196ff"/>
    </linearGradient>
    <linearGradient id="linear-gradient-2" x1="150.02" y1="1065.38" x2="169.02" y2="1119.58" gradientTransform="matrix(1, 0, 0, -1, 0, 1392.31)" gradientUnits="userSpaceOnUse">
      <stop offset="0" stop-color="#4572f0"/>
      <stop offset="1" stop-color="#7196ff"/>
    </linearGradient>
    <linearGradient id="linear-gradient-3" x1="131.97" y1="1167.31" x2="154.8" y2="1205.95" xlink:href="#linear-gradient-2"/>
  </defs>
  <g id="Banner-Discord-HQ-Left">
    <g id="community-right">
      <g>
        <g>
          <path d="M565.28,167c-2-6-5.4-6.9-12.6-9a61.28,61.28,0,0,0-25.4-2.1,6.86,6.86,0,0,0,2.1-6.3c-1.1-3.9-6.8-5.8-12.7-4.2s-9.7,6.2-8.6,10.2c.5,2,2.4,3.5,4.8,4.2a52.64,52.64,0,0,0-5.1,2.4c-13,6.6-11.9,8.8-10.5,18.6-3.7.5-4.5,1.7-3.3,7.1s1.8,6.3,6.6,6.3l70.2-11.4C575,166.1,568.78,166.8,565.28,167Z" style="fill: #0c1aad"/>
          <path d="M389.68,391.6c.4-1.3.4-1.7-.9-3.5-1.6-8.5-15.9-13.2-28.6-4.5-1.8-3.4-5.9-11.9-7.1-14.5a8.18,8.18,0,0,0-5.7-4.7c-6.1-14.3-16.6-37.8-29.7-63.7a11,11,0,0,0-19.7,10c12.6,24.9,22.8,47.9,28.9,62a7.21,7.21,0,0,0-.5,5.5c3.2,8.7,6.8,17,9,21.7a32.68,32.68,0,0,0,2.7,4.7h.1a8.18,8.18,0,0,0,2.4,2.7,10.1,10.1,0,0,0,7,1.3,83.26,83.26,0,0,0,9.3-1.6l3.3-.8h.8l1-.3c10.5-2.4,17.6-4.6,21.9-7.6a.09.09,0,0,0,.1-.1C388.18,395.3,389.38,392.9,389.68,391.6Z" style="fill: #1927bc"/>
          <path d="M91.28,405.4c1.1-1.9,1.6-4.6,1-8.2-1.3-7.2-11.1-7.5-19.4-5.8l1.2-5.4c.9-4.2,2.4-8.3.2-11.4,3.5-21.4,5.2-40.6,6.1-50.9a9.2,9.2,0,0,0-8.14-10.15,8.93,8.93,0,0,0-1.16-.05,11.21,11.21,0,0,0-11,10.2c-.9,9.6-2.4,27.2-5.5,46.9-2.3,1.4-3.2,3.7-4,6s-2.3,6.4-4.3,13.4c-.7,2.4-1.3,4.1-1.6,5.6h0a14.45,14.45,0,0,0-.4,1.7v.2a.58.58,0,0,1-.1.4h0v.7h0v.3c.1.1.1.1.1.2v.3h.1c0,.1.1.3.1.4h.1v.2l.2.2h.1l.3.3h.1l.3.2h.1l.5.3,1.8,1,2.6,1.5,2.6,1.2c7.2,3.1,15.3,4.6,29.4,4.6h0c5.4,0,8.5-.6,8.9-2.2s.1-1.8-.3-2.4Z" style="fill: #1927bc"/>
          <path d="M236.78,404.1c0-1.4-.2-1.8-.8-1.8h0c.7-2,.5-4.5-1-7.4-3.1-6.3-13.7-7.4-24-1.7,0,0-1.8-9.3-2.7-13a6.57,6.57,0,0,0-2.5-4c-7.5-38.2-3-43.2,10.2-53.2a11,11,0,0,0,2.29-15.39l-.09-.11a11.2,11.2,0,0,0-15.5-2.2c-23.6,17.8-26.6,34.7-18.8,74.8a7.84,7.84,0,0,0-.8,4.9c.7,5.4,2.5,15.8,3.8,23.6.1.5.1.9.2,1.4h31.5l3.7-.4C234.88,407.9,236.78,406.3,236.78,404.1Z" style="fill: #1927bc"/>
          <path d="M620.18,358.4c1.9,6.9-4.3,15-19.3,29.1-6.2,5.9-9.3,8.9-13.7,8.9-1.8,0-5.7-1.9-8.4-3.8-4.3-2.8-11.7-8-19-13.8-2.8-2.2-4.3-7.9,1.7-15.5s11.9-9.2,16.3-6.2c2.4,1.7,10.4,6.7,13.7,8.7C598.78,349.5,617.18,347.5,620.18,358.4Z" style="fill: #1927bc"/>
          <path d="M576.48,385.2a10.91,10.91,0,0,1-6.6-2.2c-.3-.2-31-23.1-69.6-46.9a11,11,0,1,1,11.6-18.8c39.5,24.3,70,47,71.2,48a11,11,0,0,1-6.6,19.9Z" style="fill: #8cd9ff"/>
          <path d="M71.18,324.4c-3.4.1-5.2-.4-5.8-1.5a6.91,6.91,0,0,1,.1-5.1c2-5.4,14-15.9,19.3-8S78.28,324,71.18,324.4Z" style="fill: #ffe75c"/>
          <ellipse cx="312.92" cy="259.65" rx="10.3" ry="21.1" transform="translate(-55.65 87.9) rotate(-14.7)" style="fill: #ffe75c"/>
          <ellipse cx="196.15" cy="271.73" rx="10.32" ry="21.14" transform="translate(-61.61 57.55) rotate(-14.45)" style="fill: #ffe75c"/>
          <path d="M337.28,259c-.6,7-23.6,27.3-35.6,17.6-6.6-5.4,10-15.8,19.1-19.3a32.58,32.58,0,0,1,11.2-2.2C335,255.2,337.38,256.4,337.28,259Z" style="fill: #ffe75c"/>
          <path d="M370.18,288.6c2.3,10,11.8,21.1,14.8,19.6s4.7-10.3,3.8-19.4-5.1-16.6-9.6-16.6S367.58,277,370.18,288.6Z" style="fill: #ffe75c"/>
          <path d="M192.78,260.3c-4.6,9.1-4.3,23.7-1,24.4s10.1-4.8,15.3-12.5,6.6-16.1,3.1-18.9S198.18,249.7,192.78,260.3Z" style="fill: #ffe75c"/>
          <path d="M397.38,301.5c-5.4,5.6-12.9,7.6-14,6s-.8-6.3,1-11.9c2.5-7.4,8.5-15.2,12.9-14.5S407.68,290.9,397.38,301.5Z" style="fill: #ffe75c"/>
          <path d="M467.88,263.3c-3.5,6.4-6.6,8.9-8.9,7.7s-4.3-5-5.1-10.3c-1.5-9.8,3.6-23.9,11.3-21.4S472.88,254.2,467.88,263.3Z" style="fill: #ffe75c"/>
          <path d="M459.88,269.9c3.8-.5,5.3-1.5,5.2-2.8s-1.4-3.3-3.8-5.5c-6.1-5.5-26.5-14.4-26.6-4.8S452,271,459.88,269.9Z" style="fill: #ffe75c"/>
          <path d="M110.48,311.1c.2,3,.9,4.2,2,4.1s2.7-1,4.5-2.8c4.5-4.5,12.2-20.3,4.6-20.7S109.88,304.8,110.48,311.1Z" style="fill: #ffe75c"/>
          <path d="M64.48,319.6c.3,3,1,4.2,2,4.1s2.7-1,4.5-2.8c4.5-4.5,12.3-20.3,4.7-20.7S63.88,313.3,64.48,319.6Z" style="fill: #ffe75c"/>
          <path d="M114.08,303.4c2.2,2.6,2.8,4.4,2.2,5.5a6.19,6.19,0,0,1-4.1,2.9c-5.6,1.6-21.1-1.9-17.9-10.9S109.68,297.9,114.08,303.4Z" style="fill: #ffe75c"/>
          <path d="M290.48,374.4l-31.4-11a30.11,30.11,0,0,1-19.5-22.2l-7.7-35.9a30,30,0,0,1,9-28.3l24-22.5a30.39,30.39,0,0,1,30.6-6.4l31.4,11a30.16,30.16,0,0,1,19.6,22.2l7.6,35.9a30.38,30.38,0,0,1-8.9,28.4L321.08,368A30.08,30.08,0,0,1,290.48,374.4Z" style="fill: #66bcff"/>
          <path d="M400.08,294.7l-25.2,1.2a32.74,32.74,0,0,0-27.1,16.7L335,335.2a32.93,32.93,0,0,0,.2,32.7l9.4,16.3a33.13,33.13,0,0,0,28.5,16.4H396a32.9,32.9,0,0,0,27-14.1l15.1-21.6a32.88,32.88,0,0,0,2.3-33.7l-9.3-18.5A33,33,0,0,0,400.08,294.7Z" style="fill: #66bcff"/>
          <path d="M523.18,363.1,499,374.9a35.9,35.9,0,0,1-35.7-2.5l-24.2-16.2a36,36,0,0,1-15.7-32.6l2-25.1a35.72,35.72,0,0,1,21-29.7l23.7-10.8a35.62,35.62,0,0,1,34.2,2.6l23.5,15.1a35.89,35.89,0,0,1,16.3,31.3l-.8,25A35.79,35.79,0,0,1,523.18,363.1Z" style="fill: #66bcff"/>
          <path d="M544.08,303.7a36,36,0,0,0-16.3-28l-15-9.7-13.1,6C515.38,300.6,517.68,310.5,544.08,303.7Z" style="fill: #3892eb"/>
          <path d="M67.68,377.9l-19.1,5.3a26.21,26.21,0,0,1-25.4-6.6L7.88,361.7a26.62,26.62,0,0,1-7-25.7l4.8-17.8a26.62,26.62,0,0,1,19.1-18.7l18.6-4.6a26.6,26.6,0,0,1,24.4,6.4l14.9,14.1a26.68,26.68,0,0,1,7.7,24.8l-4,18A26.18,26.18,0,0,1,67.68,377.9Z" style="fill: #66bcff"/>
          <path d="M206.48,366.8h-25.8a34.2,34.2,0,0,1-29.5-17.1l-13.9-24.1a34,34,0,0,1,.2-34.6l12.2-20.7a34.31,34.31,0,0,1,30.5-16.7l24.9.7a34.19,34.19,0,0,1,28.3,16.6l13.8,22.9a34.28,34.28,0,0,1,.9,33.7l-11.2,21.2A34.47,34.47,0,0,1,206.48,366.8Z" style="fill: #66bcff"/>
          <path d="M135.58,402.3l-24.4,2.5a31.32,31.32,0,0,1-28.8-12.6L68,372.2a28.81,28.81,0,0,1-2.3-29.8L75,323.6a31.92,31.92,0,0,1,25.5-17.5l22.2-2.5a31.69,31.69,0,0,1,27.4,10.5l15.4,18.1a29,29,0,0,1,5.1,29.7l-8.2,20.5A32,32,0,0,1,135.58,402.3Z" style="fill: #66bcff"/>
          <path d="M563,289.4l-30.5.9a36.5,36.5,0,0,1-32.8-18.3l-12.2-21.2a36.72,36.72,0,0,1,1.2-38.3l15.4-23.5a36.81,36.81,0,0,1,30.4-16.5h29.3a36.8,36.8,0,0,1,31.5,17.8l12.1,20.1a36.6,36.6,0,0,1,0,37.5l-14,23.7A36.38,36.38,0,0,1,563,289.4Z" style="fill: #66bcff"/>
          <path d="M584.78,210.8a73.21,73.21,0,0,1-13.1,11.5,6.19,6.19,0,0,1-7.9-.6c-8-7.8-15.6-13.1-27.1-18.4-1.6-.7-6.4-2.4-8.6-.1s-1.8,4.1-1,6.4c6.3,18.1,13.7,36.5,32,38.6s31-12.5,36.9-31a19.12,19.12,0,0,0,.9-5.3,5.4,5.4,0,0,0-5.22-5.57,5.46,5.46,0,0,0-3.88,1.47A29.3,29.3,0,0,0,584.78,210.8Z" style="fill: #fff"/>
          <path d="M565.48,222.8l-2.2,11.5,8.3.4-2-11.5A5.82,5.82,0,0,1,565.48,222.8Z" style="fill: #3892eb"/>
          <path d="M587.78,207.8a29.3,29.3,0,0,0-3,3l-.2.2,7.7,15.4a66.45,66.45,0,0,0,3.7-9.2,19.12,19.12,0,0,0,.9-5.3,5.4,5.4,0,0,0-5.22-5.57A5.46,5.46,0,0,0,587.78,207.8Z" style="fill: #3892eb"/>
          <path d="M539.08,204.5l-2.4-1.2c-1.6-.7-6.4-2.4-8.6-.1s-1.8,4.1-1,6.4a150.71,150.71,0,0,0,6.7,16.9Z" style="fill: #3892eb"/>
          <path d="M554,213.3l-2.3-1.7-7.6,29.7a20.9,20.9,0,0,0,2.3,1.9Z" style="fill: #8cd9ff"/>
          <path d="M577.38,217.9l8.4,18.7,1.8-2.3-8.1-18.2Z" style="fill: #8cd9ff"/>
          <path d="M531.38,202.1a15.32,15.32,0,0,1,5.3,1.2c11.5,5.3,19.1,10.6,27.1,18.4a6.53,6.53,0,0,0,4.3,1.7,6.39,6.39,0,0,0,3.6-1.1,73.21,73.21,0,0,0,13.1-11.5,29.3,29.3,0,0,1,3-3,5.45,5.45,0,0,1,9.1,3.9.67.67,0,0,1,0,.2,19.12,19.12,0,0,1-.9,5.3c-5.5,17.3-16.9,31.2-33.4,31.2l-3.5-.2c-18.3-2.1-25.69-20.5-32-38.6-.8-2.3-.8-4.5,1-6.4a4.64,4.64,0,0,1,3.31-1.1m0-1h0a5.17,5.17,0,0,0-4,1.5c-2.5,2.5-1.81,5.4-1.2,7.3,6.8,19.5,14.3,37.1,32.8,39.2a21.62,21.62,0,0,0,3.6.2c8,0,15.3-3.1,21.5-9.4s9.9-13.2,12.8-22.4a20.6,20.6,0,0,0,1-5.5,6.31,6.31,0,0,0-1.8-4.6,6.72,6.72,0,0,0-4.7-1.9,6.07,6.07,0,0,0-4.2,1.6,22.15,22.15,0,0,0-3.1,3.1,73.79,73.79,0,0,1-12.9,11.3,5.68,5.68,0,0,1-3.1,1,4.88,4.88,0,0,1-3.6-1.5,90.25,90.25,0,0,0-27.4-18.5,14.33,14.33,0,0,0-5.7-1.4Z" style="fill: #66bcff"/>
          <path d="M576.48,203.2h-.1c-3.9-.3-12.5-.5-18.4-.5a1.2,1.2,0,0,1,0-2.4c6,0,14.7.3,18.6.6a1.11,1.11,0,0,1,1.11,1.1.34.34,0,0,1,0,.1A1.2,1.2,0,0,1,576.48,203.2Z" style="fill: #3f99f2"/>
          <path d="M582.28,194.5c-.4,3.6-1.6,3.7-4.7,2.8a30.3,30.3,0,0,0-15.5-.7c-6.7,1.4-10.3,2.3-9.9-2.1s7.9-10.6,16.2-10.6S582.88,188.7,582.28,194.5Z" style="fill: #fff"/>
          <path d="M582.28,194.5c-.4,3.6-1.6,3.7-4.7,2.8a30.3,30.3,0,0,0-15.5-.7c-6.7,1.4-10.3,2.3-9.9-2.1s7.9-10.6,16.2-10.6S582.88,188.7,582.28,194.5Z" style="fill: #fff"/>
          <path d="M554.38,189.7a1.76,1.76,0,0,0,.3,1,10.63,10.63,0,0,0,5.9,6.2l1.5-.3a19,19,0,0,1,3.5-.6c1.9-1.9,1.9-5.9-.7-9.7a8.92,8.92,0,0,0-1.5-1.8A16.69,16.69,0,0,0,554.38,189.7Z"/>
          <path d="M510.68,165.4l-10.1,28.8c15.2,0,21.2,1.9,31.4-7.3,15.7-14.1,16.2-14.4,20.7-14.4h17.2l-17.2-7.1Z" style="fill: #0c1aad"/>
          <path d="M506.18,182.3h-7.8a1.31,1.31,0,0,1-1.2-1.2,1.2,1.2,0,0,1,1.2-1.2h4.3c11.4.1,18.3.2,27.2-7.3l.8-.7c8-6.8,11.4-9.6,28.5-7a1.17,1.17,0,1,1-.36,2.31h0c-16-2.4-18.7-.2-26.6,6.5l-.8.7C522.88,181.6,515.88,182.3,506.18,182.3Z"/>
          <path d="M571.58,273.3h0a1,1,0,0,1-1.11-.87,1.22,1.22,0,0,1,0-.33c0-.1.1-6.6-1.2-10.4a1.1,1.1,0,0,1,.57-1.45l.13-.05a1.2,1.2,0,0,1,1.5.7c1.5,4.2,1.3,11,1.3,11.3a1.08,1.08,0,0,1-1.09,1.1Z" style="fill: #3f99f2"/>
          <path d="M580.48,265.3a1.1,1.1,0,0,1-1.1-.8l-1.7-4.5a1.3,1.3,0,0,1,.7-1.6,1.2,1.2,0,0,1,1.5.8h0l1.7,4.5a1.19,1.19,0,0,1-.7,1.5Z" style="fill: #3f99f2"/>
          <path d="M559,269.7a1.32,1.32,0,0,1-1.2-1.1c-.1-2.2,1.5-7.8,1.7-8.5a1.31,1.31,0,0,1,1.5-.8,1.2,1.2,0,0,1,.81,1.5h0c-.7,2.2-1.7,6.3-1.6,7.6a1.29,1.29,0,0,1-1.1,1.3Z" style="fill: #3f99f2"/>
          <path d="M440.38,332.4a1.11,1.11,0,0,1-1-.6L430,313.2a1.2,1.2,0,0,1,1.85-1.53,1,1,0,0,1,.25.53l9.4,18.5a1.19,1.19,0,0,1-.5,1.6Z" style="fill: #3f99f2"/>
          <path d="M463.38,323c-14.3,10.8-18.3,15.8-8.2,63.1h-22.7c-9.3-44.5-7.1-62.2,17.6-80.8a11.2,11.2,0,0,1,15.5,2.2,11,11,0,0,1-2.08,15.42Z" style="fill: #8cd9ff"/>
          <path d="M559.48,375.4c2.2,1.8,7.5-1.6,10.6-5.9s4.9-9.7,2.1-12.2l1.4-.3,16.8,11.2,2.1,14.7-11.6,5.5-8.3-2.1-13.1-9.4Z" style="fill: #1927bc"/>
          <path d="M618.18,354.7c1.1,1.6,1,4-.2,7.4-2.9,8.9-14.8,20.3-20.1,25.2s-10.7,9.1-14.3,8a11.73,11.73,0,0,0,3.6,1.1c4.4,0,7.5-3,13.7-8.9,10-9.4,16.1-16.2,18.5-21.6s1.8-7.4,1.5-8.7S620.18,355.6,618.18,354.7Z" style="fill: #0c1aad"/>
          <path d="M478.28,407.3c-3.3,1.2-8.9,2.7-17.7,2.7h-26.1c-1.3-7.9-3.3-19.3-4-25-.5-3.9,1-8,9.6-10.1s14.5.4,15.6,5.3,2.7,13,2.7,13c10.3-5.7,20.9-4.6,24.1,1.7S482.68,405.7,478.28,407.3Z" style="fill: #1927bc"/>
          <path d="M304.58,316c0,13,0,38.7-2.7,66.3h-22.2c2.7-27.3,2.7-53.4,2.7-66.3a11.1,11.1,0,0,1,22.2,0Z" style="fill: #8cd9ff"/>
          <path d="M141.58,403.7a11.22,11.22,0,0,1-10.7-8.4c0-.1-3.8-15.1-9.5-32.2a10.9,10.9,0,0,1-14.2-.9,11.1,11.1,0,0,1-.3-15.69h0l5-5.1a16.5,16.5,0,0,1,27.5,5.9c7.5,21.3,12.7,41.7,13,42.6a11,11,0,0,1-8,13.37l-.14,0A8.5,8.5,0,0,1,141.58,403.7Z" style="fill: #8cd9ff"/>
          <path d="M324.58,396.1c-2.1-7.9-12.8-8.2-21.7-6.3.3-2,.5-4,.8-5.9.9-7.2,3.6-14-10.2-17.2s-15,2-16.3,7c-.6,2.1-1.8,6.9-3.4,14.6-2,9.3-2.3,10.7,1.1,12.7,10.9,6.2,19.9,9,40.5,9C319.88,410,327.48,407.2,324.58,396.1Z" style="fill: #1927bc"/>
          <path d="M315.38,410c-20.6,0-29.6-2.8-40.5-9-2.5-1.5-3-2.6-2.3-6.7-.3,2.6,1.6,3.7,6.2,5.8s17.1,6.7,29.4,6.9,16.1-2,16.1-2a2.6,2.6,0,0,1,.5,2.6C324.58,409.4,321.18,410,315.38,410Z" style="fill: #0c1aad"/>
          <path d="M135.38,373.8c6.8-2.5,13.1-2.2,15.1,4.3s4.6,16,4.6,16c8.8-3.1,15.9-2.1,17.5,5.1s-10.5,10.8-18.1,10.8h-21c-2.3-7.1-4.2-13.8-5.8-19.9C125.68,382.4,125.88,377.4,135.38,373.8Z" style="fill: #1927bc"/>
          <path d="M172.58,401.7c-7.5.8-11.3,4.2-24.5,5.5-6.5.7-11.6,1-15.2,1.1l.6,1.7h21a29,29,0,0,0,6.3-.7h0c11.4-2.1,12.6-4.7,12.6-5.6S173.18,401.7,172.58,401.7Z" style="fill: #0c1aad"/>
          <path d="M484.18,404.1c0-1.4-.2-1.8-.8-1.8-10.4-.8-21.6,1.9-33.2,4.2a123.15,123.15,0,0,1-15.9,2c.1.5.1,1,.2,1.5h26.1l5.3-.2h.1l3.7-.4C482.28,407.9,484.18,406.3,484.18,404.1Z" style="fill: #0c1aad"/>
          <path d="M335,336.4l-.6-.2a1.21,1.21,0,0,1-.4-1.6l12.8-22.6a1.11,1.11,0,0,1,1.49-.47.41.41,0,0,1,.11.07,1.19,1.19,0,0,1,.4,1.6L336,335.8A1.1,1.1,0,0,1,335,336.4Z" style="fill: #3f99f2"/>
          <path d="M86.38,359.3h-.2a1.09,1.09,0,0,1-.93-1.24l0-.16,3.9-18a25.07,25.07,0,0,0-7.3-23.6,1.2,1.2,0,0,1,0-1.7h0a1,1,0,0,1,1.4-.2.76.76,0,0,1,.2.2,27.37,27.37,0,0,1,8,25.8l-3.9,18A1.1,1.1,0,0,1,86.38,359.3Z" style="fill: #3f99f2"/>
          <path d="M302.18,252.9c-59.7,23.4-89.5,24.5-89.5,24.5l-2.8-26.9c64.4-12.8,72.2-18.4,82.7-22.4s17-2.1,19.1,8.1S307.18,250.9,302.18,252.9Z" style="fill: url(#linear-gradient)"/>
          <path d="M259.18,310.5a5.3,5.3,0,0,1-2.1-.5,4.81,4.81,0,0,1-2-6.4c31.7-60.6,85.8-166.5,86.3-167.6a4.71,4.71,0,0,1,6.33-2l.07,0a4.69,4.69,0,0,1,2,6.3c-.5,1.1-54.6,107-86.4,167.7A4.69,4.69,0,0,1,259.18,310.5Z" style="fill: #fff"/>
          <path d="M283.18,231.9c2.6-10.3,12.4-11.1,14.8-4,1.7,5.1-.3,10.7-8.1,7.3S283.18,231.9,283.18,231.9Z" style="fill: #7196ff"/>
          <path d="M290.18,380.7c-5.5-14.6-17.5-36.6-42.5-59.5L219,335.6c17.1,15.1,26.5,25.7,42,57.5a1.8,1.8,0,0,0,1.6,1c10.5-.3,21-4.2,27.3-11.4A1.8,1.8,0,0,0,290.18,380.7Z" style="fill: #7196ff"/>
          <path d="M247.68,321.2,219,335.6a242.52,242.52,0,0,1,19.6,19.8h0c7.5-7.8,13.2-14.7,18.8-24.7C254.38,327.6,251.18,324.4,247.68,321.2Z" style="fill: #5865f2"/>
          <path d="M262.18,294.1c-5.3-13.4-19-32.8-30.9-49.1l-70,10.2c-3.2,37.3-3.3,54.9-2.1,68.1,1,10.4,11.5,26.4,32.5,27.2s42.3-7.9,58.3-18.4S267.58,307.5,262.18,294.1Z" style="fill: #7196ff"/>
          <path d="M171.28,289.7a1.16,1.16,0,0,1-.71-2.09h0L183,277.3a1.21,1.21,0,0,1,1.7.09h0a1.2,1.2,0,0,1-.18,1.69h0l-12.4,10.3A1.11,1.11,0,0,1,171.28,289.7Z"/>
          <path d="M155.08,262.5c-31.5,23.1-29.3,36.9-1.1,55.5,14.8,9.8,22.6,6.8,28.4.7,9.3-9.8,3-19.6-12.3-31,0,0,6.4-5.2,11.4-9.7s4.7-12.7-4.3-18.5S161.78,257.6,155.08,262.5Z" style="fill: url(#linear-gradient-2)"/>
          <path d="M231.28,245,164,254.8l-2.9,2.3c-.2,2.3,9.3-.6,9.1,1.6,47.7,20.8,64.5,18.8,66.8,4.1a20.63,20.63,0,0,0-4-15.4Z" style="fill: #5874f2"/>
          <path d="M201,121.6c-13.3-4.8-25.5,6.7-33,21-6.2,11.9-11,22.5-22.9,29.2l37.5-6C213.78,146.2,213.38,126,201,121.6Z" style="fill: #47c46e"/>
          <path d="M168.18,164.8a1.2,1.2,0,0,1-1-.5,1.11,1.11,0,0,1,.29-1.53.41.41,0,0,1,.11-.07c20-12.2,27.3-33.9,27.4-34.1a1.1,1.1,0,0,1,1.33-.82l.07,0a1.2,1.2,0,0,1,.81,1.5h0c-.3.9-7.6,22.7-28.4,35.4Z"/>
          <path d="M200.38,162.2c-7.6.9-27.8-2.9-35-5.7-12.9-5-23.7-6.6-31-4.5a12.41,12.41,0,0,0-8.5,15.3c2.1,6.4,9.5,9.3,20.9,9.8C160.48,177.6,200.38,162.2,200.38,162.2Z" style="fill: #57f287"/>
          <path d="M162.38,168h-.6c-18.7-12.2-29.2-14.6-43.1-9.7a1.11,1.11,0,0,1-1.45-.56l0-.14a1.21,1.21,0,0,1,.7-1.5c16.4-5.8,28.1-1.2,45.2,9.9a1.09,1.09,0,0,1,.36,1.51.47.47,0,0,1-.06.09A1,1,0,0,1,162.38,168Z"/>
          <path d="M257.28,212.6c-4.9-22.1-10.7-41.3-17.2-54.2-7.8-15.3-26.9-13.1-49.6-10.2s-45.2,9.5-71,30.3c-7.8,6.3-8.8,13.7-4.5,32.1s11.4,34.7,15,41.2,9.1,12.2,32.7,11.7,46.5-2.7,81.6-20.4C259.38,235.5,259.28,221.9,257.28,212.6Z" style="fill: #7196ff"/>
          <path d="M146,189.9c-.8-2.2-1-4.5-7.8-4.5s-9.6.4-12.3,4.9-4.4,6.3-1.6,14.7c3.2,10.2,5.3,16.4,6.6,20.5,2.6,7.9,8.6,7.8,16,7.8,4.8,0,6.9-.5,8.7-3.3s2.2-3.6,1.5-5.7Z" style="fill: url(#linear-gradient-3)"/>
          <path d="M146.78,192.4h-8.9c-1.7,0-3.4.3-2.5,3.1l6.8,20.8c.7,2.3,2.1,3,5,3h8.3Z" style="fill: #b8cdff"/>
          <path d="M262.78,186.7c-2.2-7-5.7-17.7-7.8-24s-6-7.5-12.5-7.5h-27.2a22.11,22.11,0,0,0-18.8,10.5c-4.1,6.6-3.6,10.8-.7,19.7l5.2,15.7c2.6,7.4,6.2,11.2,11.3,11.2s31.9-2.4,42.4-3.4a8,8,0,0,0,6.2-3.8l1.1-1.8C265,198.6,265.08,193.6,262.78,186.7Z" style="fill: #b8cdff"/>
          <path d="M192.18,220c6,6.5,6.6,6,20.1,6,3,0,4.3,1,4.4,2.8s-3.7,6-13.8,9.1-13.6-9.9-14.5-15S190.08,217.8,192.18,220Z" style="fill: #9e0960"/>
          <path d="M190.38,230c1.6,4,4.3,7.9,8.7,8.4a10.86,10.86,0,0,0,6-7.2,6.47,6.47,0,0,0-.7-5.2c-3.9-.1-6-.5-8.1-2.1A11,11,0,0,0,190.38,230Z"/>
          <path d="M184.68,187.3c-.1.4-.1.8-.2,1.2a21.31,21.31,0,0,0-5.4-1.8,18,18,0,0,0-8,0,.61.61,0,0,1-.7-.48.81.81,0,0,1,0-.22c1-4.6,4.4-8.1,8-8.1S185.18,182.1,184.68,187.3Z"/>
          <path d="M213,233.3a16.18,16.18,0,0,0-7-3.3c-6-1.5-12.2-.8-15.1,1.2,2.2,4.6,5.8,8.6,12,6.7A37.07,37.07,0,0,0,213,233.3Z" style="fill: #ff78b9"/>
          <path d="M222,187a4.4,4.4,0,0,0,4.2,3.9l11.3-.2a3.5,3.5,0,0,0,3.47-3.53,3.05,3.05,0,0,0-.07-.67,4.89,4.89,0,0,0-4.7-4.2l-11.2.2c-2,0-3.3,1.8-3,4.1Z" style="fill: #7fa0ff"/>
          <path d="M247.88,186.9a4.5,4.5,0,0,0,4.6,3.8h3.2a3.56,3.56,0,0,0,3.3-4.5,4.59,4.59,0,0,0-4.6-3.9h-3.3a3.5,3.5,0,0,0-3.26,3.72,3.93,3.93,0,0,0,.06.48Z" style="fill: #7fa0ff"/>
          <path d="M181.68,219.5a1.41,1.41,0,0,1-1-.5,1.1,1.1,0,0,1,.14-1.55l.06,0a62.59,62.59,0,0,1,8.9-6.1,1.2,1.2,0,0,1,1.44,1.93,1.54,1.54,0,0,1-.34.17,59,59,0,0,0-8.5,5.8A1.06,1.06,0,0,1,181.68,219.5Z" style="fill: #5783ff"/>
          <path d="M225,331.8l-32.8,11.7c3.1,35,3.1,66.5,3.1,66.5h34.4C230,362.2,225,331.8,225,331.8Z" style="fill: #7196ff"/>
          <path d="M167.68,288.3h-.3c-8.1-2-17.3-3.7-17.4-3.7a1.22,1.22,0,1,1,.4-2.4c.1.1,9.4,1.8,17.5,3.8a1.2,1.2,0,0,1,.92,1.43.19.19,0,0,1,0,.07A1.19,1.19,0,0,1,167.68,288.3Z" style="fill: #5783ff"/>
          <circle cx="345.58" cy="138.2" r="16.6" style="fill: #ff78b9"/>
          <path d="M334,150l8.67,4.35a1.79,1.79,0,0,1,.81,2.4h0a1.8,1.8,0,0,1-2.41.79l-8.67-4.34a1.8,1.8,0,0,1-.81-2.41h0A1.8,1.8,0,0,1,334,150Z" style="fill: #fff"/>
        </g>
        <path d="M79.38,251.3a6.9,6.9,0,0,1-3.1-4.7l-.4-3.3c-.1-.2-.2-.3-.4-.3h0a.3.3,0,0,0-.3.3h0l-.5,3.3a7.07,7.07,0,0,1-3,4.7l-.5.2c0,.1-.1.2-.1.3h0v.3l.5.3a6.58,6.58,0,0,1,3,4.7l.5,3.3c0,.1.2.2.3.2h0a.48.48,0,0,0,.4-.2l.4-3.3a6.51,6.51,0,0,1,3.1-4.7l.4-.3.2-.3h0c0-.1-.1-.2-.2-.3Z" style="fill: #ff78b9"/>
        <path d="M413.28,206.7a18.43,18.43,0,0,1-8.3-12.8l-1.3-9a1,1,0,0,0-.9-.7h0a.91.91,0,0,0-.9.7l-1.3,9a18.7,18.7,0,0,1-8.3,12.8l-1.2.8a.8.8,0,0,0-.4.7h0a.8.8,0,0,0,.4.7l1.2.8a18.7,18.7,0,0,1,8.3,12.8l1.3,9a.91.91,0,0,0,.9.7h0a1,1,0,0,0,.9-.7l1.3-9a18.43,18.43,0,0,1,8.3-12.8l1.2-.8a.78.78,0,0,0,.4-.7h0a.78.78,0,0,0-.4-.7Z" style="fill: #ff962a"/>
        <path d="M306.88,117.6a6.14,6.14,0,0,1-2.6-4l-.4-2.9c0-.1-.2-.2-.3-.2h0c-.1,0-.3.1-.3.2l-.4,2.9a5.7,5.7,0,0,1-2.6,4l-.4.3c-.1,0-.1.1-.1.2h0a.41.41,0,0,0,.1.3l.4.2a5.7,5.7,0,0,1,2.6,4l.4,2.9.3.2h0l.3-.2.4-2.9a6.14,6.14,0,0,1,2.6-4l.4-.2a.37.37,0,0,0,.1-.3h0c0-.1,0-.2-.1-.2Z" style="fill: #0c1aad"/>
        <path d="M692.78,300.8a16.3,16.3,0,0,1-7.3-11.2l-1.1-7.9a.8.8,0,0,0-.8-.6h0c-.4,0-.8.2-.8.6l-1.2,7.9a16.18,16.18,0,0,1-7.2,11.2l-1.1.7a.74.74,0,0,0-.3.6h0a.74.74,0,0,0,.3.6l1.1.7a16.18,16.18,0,0,1,7.2,11.2l1.2,7.9a.81.81,0,0,0,.8.7h0a.8.8,0,0,0,.8-.7l1.1-7.9a16.3,16.3,0,0,1,7.3-11.2l1-.7a.79.79,0,0,0,.4-.6h0a.79.79,0,0,0-.4-.6Z" style="fill: #57f287"/>
      </g>
    </g>
  </g>
</svg>
