<svg xmlns="http://www.w3.org/2000/svg" xmlns:xlink="http://www.w3.org/1999/xlink" width="910" height="410" viewBox="0 0 910 410">
  <defs>
    <linearGradient id="linear-gradient" x1="849.54" y1="1084.95" x2="874.8" y2="1105.31" gradientTransform="matrix(1, 0, 0, -1, 0, 1392.31)" gradientUnits="userSpaceOnUse">
      <stop offset="0" stop-color="#66bcff"/>
      <stop offset="1" stop-color="#8cd9ff"/>
    </linearGradient>
    <linearGradient id="linear-gradient-2" x1="789.37" y1="1230" x2="803.93" y2="1110.3" gradientTransform="matrix(1, 0, 0, -1, 0, 1392.31)" gradientUnits="userSpaceOnUse">
      <stop offset="0" stop-color="#ffc618"/>
      <stop offset="0.31" stop-color="#ffad19"/>
      <stop offset="1" stop-color="#ff7d12"/>
    </linearGradient>
    <linearGradient id="linear-gradient-3" x1="759.17" y1="1222.25" x2="815.58" y2="1222.25" xlink:href="#linear-gradient"/>
    <linearGradient id="linear-gradient-4" x1="851.81" y1="1003.52" x2="903.18" y2="1003.52" gradientTransform="matrix(1, -0.04, -0.04, -1, -35.78, 1338.44)" xlink:href="#linear-gradient"/>
    <linearGradient id="linear-gradient-5" x1="375.7" y1="1347.51" x2="416.68" y2="1298.94" gradientTransform="matrix(1, 0.07, 0.07, -1, 52.35, 1502.13)" gradientUnits="userSpaceOnUse">
      <stop offset="0.17" stop-color="#66bcff"/>
      <stop offset="0.42" stop-color="#60b7fd"/>
      <stop offset="0.74" stop-color="#51a9f8"/>
      <stop offset="1" stop-color="#3f99f2"/>
    </linearGradient>
    <linearGradient id="linear-gradient-6" x1="446.71" y1="1358.86" x2="498.62" y2="1391.51" gradientTransform="matrix(1, 0.07, 0.07, -1, 52.35, 1502.13)" gradientUnits="userSpaceOnUse">
      <stop offset="0" stop-color="#ffc319"/>
      <stop offset="0.66" stop-color="#ff8c19"/>
    </linearGradient>
    <linearGradient id="linear-gradient-7" x1="433.36" y1="1335.73" x2="461.26" y2="1351.49" gradientTransform="matrix(1, 0.07, 0.07, -1, 52.35, 1502.13)" gradientUnits="userSpaceOnUse">
      <stop offset="0" stop-color="#ffc319"/>
      <stop offset="1" stop-color="#ff8c19"/>
    </linearGradient>
    <linearGradient id="linear-gradient-8" x1="631.97" y1="1274.94" x2="650.35" y2="1214.89" gradientTransform="matrix(0.99, 0.1, 0.1, -0.99, -122.7, 1321.19)" gradientUnits="userSpaceOnUse">
      <stop offset="0.22" stop-color="#ff5d12"/>
      <stop offset="0.96" stop-color="#ff8c19"/>
    </linearGradient>
  </defs>
  <g id="Banner-Product_Features-Left" data-name="Banner-Product&amp;Features-Left">
    <g id="community-left">
      <g>
        <g>
          <path d="M879.09,260.3a1.8,1.8,0,0,1-1.9-1.69h0a1.8,1.8,0,0,1,1.59-2h.11a139.36,139.36,0,0,1,14.3-.5,1.8,1.8,0,0,1,1.82,1.79,1.49,1.49,0,0,1,0,.21,1.89,1.89,0,0,1-1.9,1.8s-4.4-.2-13.9.4Z"/>
          <path d="M879.09,260.3a1.85,1.85,0,0,1-.2-3.7c7.9-.6,10.8-5.5,10.9-5.7a1.8,1.8,0,0,1,2.45-.69l.15.09a1.8,1.8,0,0,1,.74,2.44l0,.06c-.2.3-4,6.7-13.9,7.5Z"/>
          <path d="M890.59,258.3a7,7,0,0,1-6.9-7,6.9,6.9,0,0,1,13.8,0v0A7,7,0,0,1,890.59,258.3Zm0-10.2a3.3,3.3,0,0,0-3.2,3.2,3.2,3.2,0,0,0,3.2,3.2h0a3.2,3.2,0,0,0,3.2-3.2h0a3.2,3.2,0,0,0-3.2-3.2Z" style="fill: #fff"/>
          <path d="M879.09,260.3a1.89,1.89,0,0,1-1.2-.4,1.8,1.8,0,0,1-.36-2.52l.06-.08c6.8-9,14-7.3,14.3-7.2a1.8,1.8,0,0,1,1.42,2.11.29.29,0,0,1,0,.09,2,2,0,0,1-2.3,1.4c-.2-.1-5.2-1-10.5,5.9A1.59,1.59,0,0,1,879.09,260.3Z"/>
          <path d="M865.69,323.4a21,21,0,0,1-8.8-2,148.4,148.4,0,0,1-28.5-17.4,9.2,9.2,0,0,1-1.67-12.9l.07-.1a9.3,9.3,0,0,1,13-1.6,129.79,129.79,0,0,0,24.9,15.1,2.1,2.1,0,0,0,2.2-.1,2.66,2.66,0,0,0,1.3-1.9c2.3-17.6,2-38.3,2-38.5a9.31,9.31,0,0,1,9.1-9.5h.1a9.39,9.39,0,0,1,9.4,9.2c0,.9.3,22.3-2.2,41.3a21.27,21.27,0,0,1-20.9,18.4Z" style="fill: url(#linear-gradient)"/>
          <g>
            <path d="M888.09,289l-18.4-2.8c-.1.9-.1,1.8-.2,2.6l18.4,2.8A22.58,22.58,0,0,0,888.09,289Z" style="fill: #51b1fc"/>
            <path d="M878.79,318.7,868,303.2a2.16,2.16,0,0,1-1.1,1.2,1.59,1.59,0,0,1-.9.3l10.7,15.5A7.82,7.82,0,0,0,878.79,318.7Z" style="fill: #51b1fc"/>
            <path d="M870.19,267.8v2.6l18.6.7v-2.6Z" style="fill: #51b1fc"/>
            <path d="M845,315.2l2.2,1.3,7.7-17-2.2-1.3Z" style="fill: #51b1fc"/>
          </g>
          <path d="M863.39,189.3a26,26,0,0,0-20.6-18,169.31,169.31,0,0,0-105.9,16.6,26.12,26.12,0,0,0-14.1,23.6,175.63,175.63,0,0,0,2.2,23.9,170.23,170.23,0,0,0,5.3,23.5,26,26,0,0,0,20.7,18,168,168,0,0,0,105.8-16.7,25.77,25.77,0,0,0,14.1-23.5,175.37,175.37,0,0,0-2.1-24A187.54,187.54,0,0,0,863.39,189.3Z" style="fill: url(#linear-gradient-2)"/>
          <path d="M855.49,194.5a17.59,17.59,0,0,0-14.3-12.7,110.65,110.65,0,0,0-37.2.9,112.71,112.71,0,0,0-35.2,13.4,19.3,19.3,0,0,0-9.6,17.4,145.41,145.41,0,0,0,1.6,17.3,137.56,137.56,0,0,0,3.8,16.9,17.92,17.92,0,0,0,14.3,12.7,111.24,111.24,0,0,0,37.3-1,114.18,114.18,0,0,0,35.2-13.3,19.49,19.49,0,0,0,9.5-17.4,123.77,123.77,0,0,0-1.6-17.3A120.69,120.69,0,0,0,855.49,194.5Z" style="fill: #ff5d12"/>
          <path d="M852.59,197.5a18,18,0,0,0-14.2-12.9,110.63,110.63,0,0,0-37.2.5,116.92,116.92,0,0,0-35.7,13.1,19.51,19.51,0,0,0-9.6,17.6,148.71,148.71,0,0,0,1.7,17.5,144.9,144.9,0,0,0,4,17.2,18,18,0,0,0,14.6,12.8,111.57,111.57,0,0,0,37.4-.9,114.38,114.38,0,0,0,35.1-13.3,19.37,19.37,0,0,0,9.4-17.3,141.32,141.32,0,0,0-1.7-17.3A125,125,0,0,0,852.59,197.5Z"/>
          <ellipse cx="732.06" cy="241.58" rx="13.2" ry="20.8" transform="translate(-38.76 231.32) rotate(-17.5)" style="fill: #ffe75c"/>
          <path d="M759.19,178.3c8.1-2.5,14.3-5,22.6-2.5,3.9,1.2,7.6,1.8,25.1-1.2,9.9-1.7,8.9-4.8,8.4-8.1-1-4.9-11-6.5-35.1-2.2C757.59,168.4,759.19,178.3,759.19,178.3Z" style="fill: url(#linear-gradient-3)"/>
          <path d="M844.19,297.6a14.59,14.59,0,0,0-13.9-11l-50.5-1.3a14.71,14.71,0,0,0-14.5,10.3l-12.2,38.6a39.3,39.3,0,0,0,1.9,28.6h0a22.11,22.11,0,0,0,19.7,13l56.1,1.4a22.49,22.49,0,0,0,20.4-11.9h0a39.94,39.94,0,0,0,3.3-28.6Z" style="fill: #ff962a"/>
          <path d="M840.79,335h-28.3a4.11,4.11,0,0,1-4-3.5c-.4-2.9-1.1-7.7-2.2-15.1s-2.1-16.5-4.8-22.7a1.41,1.41,0,0,1,.66-1.87,1.36,1.36,0,0,1,.74-.13l28.4.6a4.1,4.1,0,0,1,3.4,2.1c4,7.7,5.8,20.6,8.8,37.4a2.79,2.79,0,0,1-2.37,3.17Z" style="fill: #ffe75c"/>
          <path d="M854.89,281.8a8,8,0,1,1,8-8A8,8,0,0,1,854.89,281.8Zm0-12.2a4.3,4.3,0,1,0,4.2,4.4.67.67,0,0,0,0-.2,4.2,4.2,0,0,0-4.2-4.2Z"/>
          <path d="M848.79,281.8a1.8,1.8,0,0,1-1.8-1.6c-.1-.1-1.7-13.1-3-19.4a1.84,1.84,0,1,1,3.6-.8c1.4,6.5,3,19.2,3.1,19.7a1.89,1.89,0,0,1-1.6,2.1Z"/>
          <path d="M799.69,324.4c-10.8.5-18.8-6.6-28.6-15.2l-1.7-1.5a9.28,9.28,0,1,1,12.3-13.9l1.7,1.5c11.1,9.8,13.5,11.2,17.2,10.3,7-1.7,19.8-12.3,39.6-30.1a9.3,9.3,0,0,1,12.4,13.8c-23.9,21.6-36.5,31.6-47.6,34.4A24.84,24.84,0,0,1,799.69,324.4Z" style="fill: url(#linear-gradient-4)"/>
          <path d="M908.09,300.3h-.2l-45.2-5.9a1.8,1.8,0,0,1-1.4-1.1,1.91,1.91,0,0,1,.2-1.9l27.6-36.2a2,2,0,0,1,1.8-.7,1.69,1.69,0,0,1,1.4,1.2l17.6,42a1.89,1.89,0,0,1-.3,1.8A1.79,1.79,0,0,1,908.09,300.3Zm-41.7-9.2,38.8,5-15.1-36Z" style="fill: #fff"/>
          <path d="M895.69,285.9h-.5l-38.2-11a1.9,1.9,0,0,1,.34-3.79,2.17,2.17,0,0,1,.66.19l38.2,10.9a2,2,0,0,1,1.3,2.4A1.88,1.88,0,0,1,895.69,285.9Z" style="fill: #ffe75c"/>
          <path d="M799.19,215l-27,5.2a16.21,16.21,0,0,1,12.5-11A14,14,0,0,1,799.19,215Z" style="fill: #57f287"/>
          <path d="M822.49,210.5l25.7-5a13.6,13.6,0,0,0-13.9-5.7A15.51,15.51,0,0,0,822.49,210.5Z" style="fill: #57f287"/>
          <path d="M787.69,232l49.7-9.9c1.1,9.5-6.7,20.6-22,23.8S789.19,241.7,787.69,232Z" style="fill: #57f287"/>
          <path d="M752,353.6l102.6,2.5a33.06,33.06,0,0,0,.7-3.4l-103.8-2.6A21.7,21.7,0,0,0,752,353.6Z" style="fill: #ff5d12"/>
          <g>
            <path d="M831.79,283l-1.9,1.7,12,14.2,1.9-1.7Z" style="fill: #3f99f2"/>
            <path d="M774.69,312.4l2,1.7,10.2-15.7-1.9-1.7Z" style="fill: #3f99f2"/>
            <path d="M821.89,315.1l2.1-1.6-9.3-16.2-2.1,1.5Z" style="fill: #3f99f2"/>
            <path d="M799.19,305.8a5.06,5.06,0,0,1-2.6-.4l-.8,18.9h2.6Z" style="fill: #3f99f2"/>
          </g>
        </g>
        <g>
          <line x1="561.49" y1="190.3" x2="646.99" y2="142.5" style="fill: none;stroke: #000;stroke-miterlimit: 10;stroke-width: 0.24384203553199768px"/>
          <path d="M543.69,153.9c5.1,8.7,3.6,17.1-3.7,18.4s-18.5-4.6-22.4-14.7-1.8-15.1,5-16.3S538.69,145.6,543.69,153.9Z" style="fill: #66bcff"/>
          <rect x="573.88" y="349.8" width="30.5" height="53.9" transform="translate(-105.81 454.71) rotate(-39)" style="fill: #eb459f"/>
          <path d="M597.09,403.6c-2.9-3.3-6.6-6.7-12.7-8l9.9,12.2Z" style="fill: #d11583"/>
          <path d="M589.19,252.4c36.6-4.5,31.3-20.8,29.3-29.8s-10.9-23.3-14-28.5a3.64,3.64,0,0,1-.4-2.7c1.2-6,2.6-10.1-4.6-15.5L584,179.1a6,6,0,0,0-4.6,4.6l-.9,4.4a5.34,5.34,0,0,0,.3,3.5l13.8,32.7-25.5,3.4Z" style="fill: #3f99f2"/>
          <path d="M590.09,224.7c6.1,19.4,7.5,27.9,8,31.7s-.3,4.8-20.7,4.5l-11.3-33.6Z" style="fill: #fff"/>
          <polygon points="527.69 401 516.09 408.8 504.19 385.5 536.59 336.6 560.09 352.1 527.69 401" style="fill: #eb459f"/>
          <rect x="507.85" y="366.62" width="58.7" height="11.2" transform="matrix(0.55, -0.83, 0.83, 0.55, -69.68, 614.74)" style="fill: #ff78b9"/>
          <path d="M530.09,384.4c-6.1,1.3-6.9-1.3-4.2-5.3l-7.1-4.3-6.6,8.5v9l7.1,8.8,14.9-7.6Z" style="fill: #eb459f"/>
          <path d="M586,298.1c5.4,10.8,4.7,11.6.5,16.4-9.8,27.9-24.2,52.5-28.8,59.9s-11.1,7.8-22.3,2.4-17.7-15.7-13.1-22.7c17.1-26,21.1-31.8,21.1-31.8-14.5-11.9-4.3-29.2-4.3-29.2Z" style="fill: #334c6b"/>
          <path d="M540.69,368.7c-11.3-5.3-17.7-15.7-13.1-22.7l-5.3,8.1c-4.6,7,1.8,17.3,13.1,22.7s17.7,5,22.3-2.4c1.2-1.9,3-4.9,5.2-8.7C558.29,373.1,551.89,374.1,540.69,368.7Z" style="fill: #557eb0"/>
          <path d="M520.19,293.3c-8.1,17.8-7.2,30.2,9.4,51s24.4,30.4,33.7,41.1c4,4.6,5.5,7.8,13.4,4s18.5-12.9,23.4-21.7c2.6-4.7,2.3-6-2.6-12.8-11.9-16.6-28-38.4-28-38.4,6.9-8.6,1.3-19,1.3-19S534.59,290.6,520.19,293.3Z" style="fill: #334c6b"/>
          <path d="M569.49,317.6H569a1.1,1.1,0,0,1-.63-1.42l0-.08c3.1-7.4,2.4-12.6,1.2-18.2a1.2,1.2,0,0,1,2.3-.5c1.2,5.8,2,11.6-1.3,19.6A1.09,1.09,0,0,1,569.49,317.6Z" style="fill: #163352"/>
          <path d="M569.59,372.8a1,1,0,0,1-.9-.4l-25.2-31-.8-.9c-13.7-16.8-20-24.5-13.9-48.5a1.2,1.2,0,0,1,1.4-.9,1.28,1.28,0,0,1,.9,1.5c-5.9,22.8-.2,29.7,13.5,46.4l.7.9,25.2,31a1.29,1.29,0,0,1-.2,1.7Z" style="fill: #163352"/>
          <path d="M517.59,272c-6.1,12.9-4.7,14.4,2.6,17.1s30.5,9.9,45.2,10.3,19.9-1.9,22.2-7.9c3.1-8,5.8-25.4-7.5-46-12.4-19.1-18.7-21.6-42.7-19.2S500.29,233.5,517.59,272Z" style="fill: #fff"/>
          <polygon points="536.39 234.6 563.79 242.3 566.59 222.4 536.39 234.6" style="fill: #3f99f2"/>
          <path d="M541.49,243.3a102.81,102.81,0,0,0,5,29.2c1.4,4,3.9,2.1,5.1-5.4Z"/>
          <path d="M565,295.4c-17.6-.5-26.4-6.1-44.8-6.3v4.2c23.7,1.2,38.8,12.6,65.8,4.8v-3.6A150.27,150.27,0,0,1,565,295.4Z"/>
          <path d="M582,354.8a48.45,48.45,0,0,0-16.6,13.3c-7.3,9.7-4.8,14.1-3.7,15.4h0l1.6,1.9c4,4.6,5.5,7.8,13.4,4s18.5-12.9,23.4-21.7c2.6-4.7,2.3-6-2.6-12.8C594.79,351.3,589.79,351.2,582,354.8Z" style="fill: #557eb0"/>
          <path d="M566.79,366.4c-.49.54-1,1.11-1.4,1.7h-.1l8,9.8a1.1,1.1,0,0,0,.9.5,1.06,1.06,0,0,0,.7-.3,1.09,1.09,0,0,0,.25-1.54l0-.06Z" style="fill: #334c6b"/>
          <path d="M576.59,326.1a17.19,17.19,0,0,0-14.7.9,1.7,1.7,0,0,0-.65,2.31.41.41,0,0,1,0,.09,97.68,97.68,0,0,0,8,9.8,2.31,2.31,0,0,0,2.7.6c5.9-2.3,10.2-1.4,14-.9Z" style="fill: #ff78b9"/>
          <path d="M569.49,317.6a1.14,1.14,0,0,1-.8-.3,45.6,45.6,0,0,0-23.5-10.6,1.2,1.2,0,0,1-1-1.37v0a1.21,1.21,0,0,1,1.3-1c3.3.5,14.7,2.5,24.3,10.9l11-2.4a1.1,1.1,0,0,1,1.38.72.24.24,0,0,1,0,.08,1.2,1.2,0,0,1-.82,1.48l-.08,0-11.6,2.5Z"/>
          <path d="M525.09,385.5c15.6-3.8,20.7-2.2,23.8,1.1s4,10.1-.9,16.1l-32.8,3.8Z" style="fill: #eb459f"/>
          <path d="M585,184.8c1.4-11.9-6.9-22.2-18.1-22.9s-19.9,7.6-21.2,18.5,5.9,21.1,16.4,22.7S583.59,196.7,585,184.8Z" style="fill: #66bcff"/>
          <path d="M486.39,176.4c5.4,8.8,3.8,17.8-4.1,20.2s-20.3-3.3-26.4-13.1-3.5-19.2,5.5-20.7S480.89,167.5,486.39,176.4Z" style="fill: #0c1aad"/>
          <path d="M438.19,200.6c-.7-7.4,5.3-14.1,13.4-14.8s32.6,1.4,33.2,11-16,14.9-31,16C445.79,213.4,438.89,208,438.19,200.6Z" style="fill: #0c1aad"/>
          <path d="M471.59,204.2c6.5-4,13.3-3.9,16.7-1.2s3.9,7.6,1.1,12.7c-4,7.4-14.5,13.9-22.5,10.6C457.29,222.5,461.59,210.5,471.59,204.2Z" style="fill: #0c1aad"/>
          <path d="M575,212.1c-9.3,18.1-13.9,28.6-54.6,27.1-22.8-1.7-43.7-16.5-46.3-37.3-3.5-27.7,25.3-53.3,63.2-47.7C572.89,159.4,587.19,188.6,575,212.1Z" style="fill: url(#linear-gradient-5)"/>
          <path d="M563.59,202.6c-3.6,0-7.5-2.2-7.7-2.3a1,1,0,0,1-.4-1.3,1,1,0,0,1,1.3-.3c1.8,1,7.1,3.3,9.6,1.2s3.1-3.1,3-5.2-1.5-3.7-4.1-5.4a.91.91,0,0,1-.3-1.1c.6-2,2.2-8.6-2.5-10.1s-7.5,1.5-9.7,7.2a.9.9,0,0,1-1.16.51h0a.9.9,0,0,1-.51-1.16v0c2.6-6.7,7.1-9.8,12-8.2s5.4,5.7,3.8,11.7c2.7,2,4.2,4.2,4.3,6.5s-1.1,4.6-3.6,6.7A6.6,6.6,0,0,1,563.59,202.6Z"/>
          <path d="M499.09,155.3c-4.1-2.7-8.6-4-12.3-3.3-6.9,1.2-8.5,7.4-5.1,16.7,1,2.7,1.9,4.7,2.7,6.4l20.8-16.1A63.06,63.06,0,0,1,499.09,155.3Z" style="fill: #66bcff"/>
          <path d="M483.39,193.2c0-7.7-1.6-9.3-4.6-15.1-8.8,6.4-13.8,13.6-7.5,27.2C477.79,203.8,483.39,199.6,483.39,193.2Z" style="fill: #0c1aad"/>
          <path d="M527.79,153.3a53.49,53.49,0,0,0-24.5,4.6c8,4.9,13,6,21.3,5s13.2-4.1,8.6-7.7A9.24,9.24,0,0,0,527.79,153.3Z" style="fill: #0c1aad"/>
          <path d="M526,198.1c-.2,6.8-6.2,11.6-13.3,11.1s-13.2-6.1-13.8-12.9,5.3-13.2,13.3-12.7S526.39,190.8,526,198.1Z" style="fill: #ff78b9"/>
          <path d="M585.09,180.2a20,20,0,0,0-17.8-18.3,18.33,18.33,0,0,0,2,11.6C572.89,179.6,579.39,182.2,585.09,180.2Z" style="fill: #ff78b9"/>
          <path d="M561.89,183.4l-5.3,8.2c.5,2.6,2.3,4.6,4.5,4.8s5.2-2.5,5.4-6.1S564.69,183.7,561.89,183.4Z" style="fill: #ffc619"/>
          <path d="M608.29,127.9c-8,32.8-13.4,40.2-36.8,53l2.9,6c23.7-13.3,35.4-7.7,56.2,3.1Z" style="fill: url(#linear-gradient-6)"/>
          <ellipse cx="639.5" cy="146.83" rx="32.9" ry="46.4" transform="translate(-11.71 66.51) rotate(-5.9)" style="fill: #ffc619"/>
          <path d="M514.89,175.9a6.74,6.74,0,0,1,2.6-2.4,9.63,9.63,0,0,1,3.3-1,10.09,10.09,0,0,1,3.5.4,4.59,4.59,0,0,1,2.8,2.5,1,1,0,0,1-.5,1.3h-1a10.07,10.07,0,0,0-2.2-.9,6.86,6.86,0,0,0-2.5-.4,7,7,0,0,0-4.7,1.5h-.1a.8.8,0,0,1-1.1-.1A.91.91,0,0,1,514.89,175.9Z"/>
          <path d="M548.39,168.7a2.05,2.05,0,0,1,.1-1.5,3.29,3.29,0,0,1,.8-1.2,3.19,3.19,0,0,1,1.1-.9,3.62,3.62,0,0,1,1.3-.5.89.89,0,0,1,.9.7.7.7,0,0,1-.4.7h0a1.84,1.84,0,0,0-.7.5l-.5.7a1.14,1.14,0,0,0-.3.7c-.1.2-.1.5-.3.7l-.2.3a1.1,1.1,0,0,1-1.4.2A1,1,0,0,1,548.39,168.7Z"/>
          <path d="M561.59,183.4l3.4,11.2c3-3.8,8-6.9,11.3-8.8l.5-7.8C573,180.2,567.89,183.3,561.59,183.4Z" style="fill: #ffc619"/>
          <path d="M588.19,187.1h0a3.7,3.7,0,0,1,3.7,3.7v9.93a3.7,3.7,0,0,1-3.7,3.7h0a3.7,3.7,0,0,1-3.7-3.7V190.8A3.7,3.7,0,0,1,588.19,187.1Z" style="fill: #ffc619"/>
          <path d="M573.59,215.1a10.83,10.83,0,0,1-4.7-1.4c-3.4-2.2-5.1-6.3-4.8-11.6.7-9.9,8.3-21.6,17.4-26.7l6.7-3.8c5.1-2.8,10.1-3.1,13.7-.9s5.2,6.3,4.8,11.6c-.6,9.9-8.3,21.6-17.4,26.7l-6.6,3.8A17.08,17.08,0,0,1,573.59,215.1Zm23.1-39.3a9.64,9.64,0,0,0-5.3,1.6l-6.7,3.7c-7.1,4-13.5,13.8-14,21.4-.2,2.7.4,4.8,1.7,5.6s4.2.6,7.1-1.1l6.6-3.7c7.1-4,13.6-13.8,14.1-21.4.1-2.7-.5-4.8-1.8-5.6A3.08,3.08,0,0,0,596.69,175.8Z" style="fill: url(#linear-gradient-7)"/>
          <path d="M585.39,213l-21.1-1.4-2.6,23.9s-7.5-1.3-23.2-3.7-23-1.8-29.2,4L523,261.2c11.5,2.9,43.5,10.8,54.2,2.7C590,254.1,588.19,242.3,585.39,213Z" style="fill: #66bcff"/>
          <path d="M582.59,192.9c3.5,0,6.2-1.6,6-4.5s-2.7-3.5-7.1-3a21.24,21.24,0,0,0-4.1.8c-2.3-3.7-5.7-3.7-8.6-1.5s-2.9,4.5-3.4,9.3c-2.7.4-3.8,1.5-5.8,5.6s-1.6,5.7-1,7.7,2.4,5.5,4.2,9.6,1.7,4.3,1.3,6.3c9,4.3,21.3.2,21.3.2C590.89,215.8,596.19,209,582.59,192.9Z" style="fill: #66bcff"/>
          <path d="M526.39,275c23.4,3.1,23.6,3.2,26.1-5.5.2-.7.3-1.5.5-2.3h-1.4c-1.2,7.5-3.7,9.4-5.1,5.4a102.81,102.81,0,0,1-5-29.2c-.2-7.9,2.8-10.6,7.7-9.8l-10.7-1.7c-15.8-2.4-22.7-2-29.2,4s-2.9,17-.3,27.9C510.89,271.5,516.39,273.7,526.39,275Z" style="fill: #fff"/>
          <ellipse cx="640.69" cy="145.97" rx="28.2" ry="41.4" transform="translate(-11.47 65.49) rotate(-5.8)" style="fill: url(#linear-gradient-8)"/>
          <path d="M633.89,160.2c-.2-12.9-7.6-24-16.5-24.8a12.5,12.5,0,0,0-4.7.6,64.75,64.75,0,0,0-.4,7.5c.2,14.8,5.7,28.2,13.9,36.2C630.89,176.1,634,168.8,633.89,160.2Z"/>
          <path d="M544.89,213.6l-.9-.3a1.41,1.41,0,0,1,0-1.7,13.37,13.37,0,0,0,3.9-12.4c-1.6-8.5-10.4-15.1-20.5-15.5a1.1,1.1,0,0,1-1.1-1.1v-.1a1.21,1.21,0,0,1,1.2-1.1c11.1.4,20.9,7.8,22.7,17.4a15.78,15.78,0,0,1-4.5,14.5A1.11,1.11,0,0,1,544.89,213.6Z" style="fill: #3f99f2"/>
          <path d="M555.69,192.7a1.09,1.09,0,0,1-.7-.3,1,1,0,0,1,.1-1.3,18.18,18.18,0,0,0,5.6-9,.8.8,0,0,1,.93-.65l.17.05a.9.9,0,0,1,.71,1.06v0a20.63,20.63,0,0,1-6.2,9.9A.7.7,0,0,1,555.69,192.7Z"/>
          <path d="M563.39,202.3a1.3,1.3,0,0,0,1.2-1.1s.2-2.9.8-7.6h0v.5a5.31,5.31,0,0,0-2.4.8c-.5,3.9-.7,6.2-.7,6.2a1.11,1.11,0,0,0,1,1.2h.11Z" style="fill: #3f99f2"/>
          <path d="M551.89,403.6c-.5-2.9-2.1-5-10.7-4.2a102.09,102.09,0,0,0-20.8,4.5l-1.5.4a2.61,2.61,0,0,1-3-1.1l-.9-1.3-8.1-12.9c-1.4-2.5-2.4-3.8-.5-6.8l-2.2,3.3c-1.3,2-1.6,2.9.4,6.4l10.1,18h26.8C552.39,409.9,552.29,405.8,551.89,403.6Z" style="fill: #fff"/>
          <path d="M588.69,379.5c-8.3,6.9-15.1,11.6-18.9,10.1s-1.9-8.9,5.8-16.2,19.2-13.7,22.9-11.9S597.79,371.8,588.69,379.5Z"/>
          <path d="M599.49,365.8c-1.1,3.6-5,8.8-10.8,13.7a88.94,88.94,0,0,1-10.8,8c-3.4,2-6.2,2.9-8.1,2.1s-2.5-5.5,1.1-10.7a37.93,37.93,0,0,1,4.7-5.5c7-6.6,15.4-11.6,20.2-12.1a4.53,4.53,0,0,1,2.7.2C599.89,362.2,600.09,363.7,599.49,365.8Z"/>
          <path d="M606.39,374.4l-23.7,19.1-4.8-6-7-8.6a37.93,37.93,0,0,1,4.7-5.5c7-6.6,15.4-11.6,20.2-12.1l3.7,4.5Z" style="fill: #eb459f"/>
          <path d="M587.19,364.7l12.3,15.3,6.9-5.6-6.9-8.6-3.3-4.1-.4-.4C593.59,361.5,590.49,362.8,587.19,364.7Z" style="fill: #ff78b9"/>
          <path d="M597.29,363.1h0l.3-1.2-1.8-.6c-4.8.5-13.2,5.5-20.2,12.1a37.93,37.93,0,0,0-4.7,5.5l.3,5.1,2.2,3.3,3.3-1.3c-2.3-2.8.9-7.4,2.4-9.7C586.29,365.5,595.89,361.4,597.29,363.1Z"/>
          <path d="M518.39,399.8h-.3a1.21,1.21,0,0,1-.9-1.4,41.23,41.23,0,0,1,5.6-12,1.21,1.21,0,0,1,1.6-.3,1.29,1.29,0,0,1,.3,1.7,35.89,35.89,0,0,0-5.2,11.2A1.19,1.19,0,0,1,518.39,399.8Z" style="fill: #d11583"/>
          <path d="M517.09,392.5a1.11,1.11,0,0,1-1-.6,1.21,1.21,0,0,1,.4-1.6l5.8-3a1.2,1.2,0,0,1,1.6.5,1.09,1.09,0,0,1-.46,1.48l0,0-5.8,3.1Z" style="fill: #d11583"/>
          <path d="M551.19,407.3c-.6-1.4-2.5-2.3-6.1-2.1-9.5.5-12.6,4.7-28,4.7h24.4C547.29,409.9,550,408.7,551.19,407.3Z"/>
          <path d="M595.29,377.6c2.2.5,4.6.2,8.4-6.7,4.7-8.8,10.4-16.3,19.1-18.2s12.4,1.6,14.9,8.1L611,391.1Z" style="fill: #eb459f"/>
          <path d="M595,408.7a3.21,3.21,0,0,0,2.5,1.2h5c2.9,0,5.9-.5,11.2-6.5a.89.89,0,0,0,0-1.2l-2.1-2.3c12.8-5.7,19.3-10.8,26.7-21.2s4.1-16.5,1-19-11.6-3.2-19.5,5.4-6.4,17-15.9,26-12.5,13.1-10.7,15.3Z" style="fill: #fff"/>
          <path d="M641.49,372.9l.3-.7a16.24,16.24,0,0,0,.8-2.8c.7-4.5-1.5-7.5-6.4-7s-10.4,3.6-16.2,14.4-9.7,16-15.2,20.4-11.6,9.2-9.8,11.5a3.21,3.21,0,0,0,2.5,1.2h5c2.9,0,5.9-.5,11.2-6.5a.89.89,0,0,0,0-1.2l-2.1-2.3c12.8-5.7,19.3-10.8,26.7-21.2A28.51,28.51,0,0,0,641.49,372.9Z"/>
          <path d="M539.89,278.4h-.2l-17.1-3.4a1.09,1.09,0,0,1-1-1.18s0-.08,0-.12a1.3,1.3,0,0,1,1.4-1l17.2,3.4a1.1,1.1,0,0,1,.91,1.26v0A1.19,1.19,0,0,1,539.89,278.4Z" style="fill: #8cd9ff"/>
          <path d="M577.39,186.1a7.89,7.89,0,0,0-1.7-1.9c-4.6,1.6-4.6,7.1-4.1,16.2a1.1,1.1,0,0,0,1.1,1.1h.1a1.18,1.18,0,0,0,1.1-1.2C573.29,189.2,573.89,186.7,577.39,186.1Z" style="fill: #3f99f2"/>
          <path d="M526.29,293.8l2.7.4v-4.6l-2.7-.2Z" style="fill: #334c6b"/>
          <path d="M547.89,298.2a25,25,0,0,0,2.7.6v-5l-2.7-.6Z" style="fill: #334c6b"/>
          <path d="M580.19,299.6l2.7-.7v-4.1l-2.7.2Z" style="fill: #334c6b"/>
          <path d="M565.39,301.2a68.44,68.44,0,0,0,10.9-.6,1.19,1.19,0,0,0,1-1.1v-3.6a.9.9,0,0,0-.9-.9h0c-3.5.2-7.8.3-10.9.2a.89.89,0,0,0-1,.79s0,.07,0,.11v4.1A1.11,1.11,0,0,0,565.39,301.2Z" style="fill: #ffe75c"/>
          <path d="M722.79,145.6a1.41,1.41,0,0,1-1.3-1l-8.9-27.2a1.41,1.41,0,0,1,.4-1.5l21-17.4a1.4,1.4,0,0,1,2,.25,1.47,1.47,0,0,1,.23.45l7.9,24a1.42,1.42,0,1,1-2.7.9l-7.2-22.1-18.6,15.4,8.6,26.3a1.58,1.58,0,0,1-.9,1.8Z" style="fill: #242145"/>
          <ellipse cx="716.57" cy="142.82" rx="4.8" ry="8.1" transform="translate(295.68 740.08) rotate(-66.1)" style="fill: #242145"/>
          <ellipse cx="387.62" cy="194.81" rx="5.1" ry="8.5" transform="translate(-10.17 367.91) rotate(-50.2)" style="fill: #242145"/>
          <ellipse cx="736.63" cy="122.23" rx="4.8" ry="8.1" transform="translate(326.44 746.18) rotate(-66.1)" style="fill: #242145"/>
          <path d="M393.39,200.7h-.5a1.41,1.41,0,0,1-.8-1.8l9.7-28a1.42,1.42,0,1,1,2.7.9l-9.8,28A1.39,1.39,0,0,1,393.39,200.7Z" style="fill: #242145"/>
          <path d="M404.39,171.9c-.6,1.8.1,3.2,1.5,5.6s1.2,5.5-2.4,6h-.2c-.1-.1,0-.2.1-.3,2-1.2,2.8-3.3-.7-6.7l-.3-.5,1.4-4.6Z" style="fill: #242145"/>
          <path d="M341.19,409.9a65.1,65.1,0,0,1-5.1-130.1q2.55-.1,5.1,0h51.1V409.9Z" style="fill: #7196ff"/>
          <circle cx="392.29" cy="344.9" r="65" style="fill: #ffe75c"/>
          <circle cx="392.29" cy="377.3" r="16.7" style="fill: #fff"/>
          <circle cx="395.99" cy="374.1" r="10.2" style="fill: #5874f2"/>
          <path d="M392.29,284.5a60.4,60.4,0,1,1-60.4,60.4h0a60.51,60.51,0,0,1,60.4-60.4m0-4.7a65.1,65.1,0,1,0,65,65.2v-.1a65,65,0,0,0-64.9-65.1Z" style="fill: #ffb108"/>
          <path d="M354.59,295.6h-55.9a2.3,2.3,0,0,1-2.3-2.3v-.1a2.3,2.3,0,0,1,2.3-2.3h55.9a2.35,2.35,0,0,1,.11,4.7Z" style="fill: #ffb108"/>
          <path d="M354.59,398.8h-55.9a2.35,2.35,0,0,1-.1-4.7h56a2.32,2.32,0,0,1,2.31,2.3.34.34,0,0,1,0,.1A2.3,2.3,0,0,1,354.59,398.8Z" style="fill: #ffb108"/>
          <path d="M331.89,326.1h-55.1a2.4,2.4,0,0,1-2.4-2.4,2.3,2.3,0,0,1,2.3-2.3h55.2a2.3,2.3,0,0,1,2.4,2.2v.1A2.39,2.39,0,0,1,331.89,326.1Z" style="fill: #ffb108"/>
          <path d="M331.89,368.3h-55.1a2.29,2.29,0,0,1-2.39-2.2.34.34,0,0,1,0-.1,2.4,2.4,0,0,1,2.4-2.4h55.1a2.39,2.39,0,0,1,2.4,2.4,2.29,2.29,0,0,1-2.29,2.3Z" style="fill: #ffb108"/>
          <circle cx="397.79" cy="371.8" r="5.5"/>
          <circle cx="392.89" cy="369.1" r="1.9" style="fill: #fff"/>
        </g>
        <path d="M716.59,298.6a10.53,10.53,0,0,1-4.6-7l-.7-4.9a.5.5,0,0,0-.5-.5h0c-.2,0-.4.2-.5.5l-.7,4.9a10.28,10.28,0,0,1-4.5,7l-.7.4a.51.51,0,0,0-.2.4h0c0,.2.1.4.2.4l.7.5a9.86,9.86,0,0,1,4.5,7l.7,4.9a.7.7,0,0,0,.5.4h0a.49.49,0,0,0,.5-.4l.7-4.9a10,10,0,0,1,4.6-7l.6-.5c.1,0,.2-.2.2-.4h0a.48.48,0,0,0-.2-.4Z" style="fill: #66bcff"/>
        <path d="M893.29,204.7a6.14,6.14,0,0,1-2.9-4.5l-.5-3.2a.29.29,0,0,0-.3-.3h0c-.2,0-.3.1-.4.3l-.4,3.2a6.49,6.49,0,0,1-3,4.5l-.4.3a.41.41,0,0,0-.1.3h0a.41.41,0,0,0,.1.3l.4.2a6.88,6.88,0,0,1,3,4.6l.4,3.2.4.2h0c.1,0,.3-.1.3-.2l.5-3.2a6.43,6.43,0,0,1,2.9-4.6l.4-.2.2-.3h0l-.2-.3Z" style="fill: #0c1aad"/>
        <path d="M292,229.1a12.82,12.82,0,0,1-5.7-8.9l-.9-6.2a.8.8,0,0,0-.7-.5h0a.61.61,0,0,0-.6.5l-.9,6.2a12.78,12.78,0,0,1-5.7,8.9l-.8.5a.53.53,0,0,0-.3.5h0a.91.91,0,0,0,.3.6l.8.5a12.6,12.6,0,0,1,5.7,8.8l.9,6.2a.61.61,0,0,0,.6.5h0a.8.8,0,0,0,.7-.5l.9-6.2a12.67,12.67,0,0,1,5.7-8.8l.8-.5a.83.83,0,0,0,.3-.6h0a.5.5,0,0,0-.3-.5Z" style="fill: #5865f2"/>
        <path d="M437.79,273.7a22.8,22.8,0,0,1-10.1-15.6l-1.6-10.9a1.09,1.09,0,0,0-1.1-.9h0a1,1,0,0,0-1,.9l-1.7,10.9a22.37,22.37,0,0,1-10,15.6l-1.5.9a1.13,1.13,0,0,0-.5.9h0a1.13,1.13,0,0,0,.5.9l1.5.9a22.37,22.37,0,0,1,10,15.6l1.7,10.9a1,1,0,0,0,1,.9h0a1.09,1.09,0,0,0,1.1-.9l1.6-10.9a22.8,22.8,0,0,1,10.1-15.6l1.4-.9a1.08,1.08,0,0,0,.5-.9h0a1.08,1.08,0,0,0-.5-.9Z" style="fill: #57f287"/>
      </g>
    </g>
  </g>
</svg>
