<svg xmlns="http://www.w3.org/2000/svg" xmlns:xlink="http://www.w3.org/1999/xlink" width="910" height="410" viewBox="0 0 910 410">
  <defs>
    <linearGradient id="linear-gradient" x1="728.41" y1="502.62" x2="778.66" y2="521.04" gradientTransform="matrix(0.99, 0.16, 0.16, -0.99, 31.38, 650.35)" gradientUnits="userSpaceOnUse">
      <stop offset="0" stop-color="#4572f0"/>
      <stop offset="1" stop-color="#7196ff"/>
    </linearGradient>
    <linearGradient id="linear-gradient-2" x1="747.89" y1="311.57" x2="744.19" y2="332.47" gradientTransform="matrix(1, 0.06, 0.06, -1, 15.2, 523.93)" xlink:href="#linear-gradient"/>
    <linearGradient id="linear-gradient-3" x1="557.58" y1="139.57" x2="575.84" y2="96.15" gradientTransform="matrix(1, 0, 0, -1, 0, 441.28)" gradientUnits="userSpaceOnUse">
      <stop offset="0" stop-color="#eb459f"/>
      <stop offset="1" stop-color="#ff78b9"/>
    </linearGradient>
    <linearGradient id="linear-gradient-4" x1="561.06" y1="238.6" x2="561.06" y2="140.58" gradientTransform="matrix(1, 0, 0, -1, 0, 441.28)" gradientUnits="userSpaceOnUse">
      <stop offset="0" stop-color="#aa5f44"/>
      <stop offset="0.17" stop-color="#b56d4d"/>
      <stop offset="1" stop-color="#e6b078"/>
    </linearGradient>
    <linearGradient id="linear-gradient-5" x1="557.1" y1="139.36" x2="575.36" y2="95.95" xlink:href="#linear-gradient-3"/>
    <linearGradient id="linear-gradient-6" x1="-860.55" y1="-570.64" x2="-905.24" y2="-537.49" gradientTransform="matrix(1, 0.05, 0.05, -1, 1188.76, -327.38)" gradientUnits="userSpaceOnUse">
      <stop offset="0" stop-color="#ffc619"/>
      <stop offset="1" stop-color="#ffe75c"/>
    </linearGradient>
  </defs>
  <g id="Banner-Discord-HQ-Right">
    <g id="hq-left">
      <g>
        <g>
          <path d="M754.15,317.05c-6.7,7-11.7,12.2-15,15.5a12.6,12.6,0,0,0-3.1,11.7c3.5,13.7,14.7,23.4,24.8,27.9a7.51,7.51,0,0,0,9.88-3.86l0,0c6.9-16.5,15.2-33.5,15.2-33.5Z" style="fill: #6b2f34"/>
          <path d="M837.15,313.05c-14.5-1-22.6-1.8-38.6,9.9-3.9,2.8-9.2,8.2-12.6,11.8a9.81,9.81,0,0,1-8.9,2.9c-12.3-2.3-19.3-8.4-23.3-14.4a5,5,0,0,1,.4-6.2c4.3-4.9,6.9-8.9,7.2-12.3s-.2-7.3-4.3-15.3a5.51,5.51,0,0,1,2.22-7.46,6,6,0,0,1,1.08-.44h0a5.87,5.87,0,0,1,5.9,1.7c16.9,19.8,19.2,20.7,35,18s27.9-2.9,37.9,1.4l1.2.6C845.15,306.05,842.65,313.45,837.15,313.05Z" style="fill: #6b2f34"/>
          <ellipse cx="767.13" cy="329.43" rx="10.48" ry="21.46" transform="translate(37.54 735.28) rotate(-52.33)" style="fill: #6b2f34"/>
          <circle cx="898.65" cy="213.95" r="3.2" style="fill: #ff78b9"/>
          <rect x="893.29" y="210.62" width="4.85" height="16.7" rx="2.4" transform="translate(587.35 1087.98) rotate(-84.2)" style="fill: #fff"/>
          <path d="M736.35,125c17,2.5,16.6,11,14.4,22.6s-13.6,10.5-15.5,6.2S736.35,125,736.35,125Z" style="fill: #6b2f34"/>
          <path d="M686,165.75c-3.9,6.8-7.1,12.7-9.3,16.9s-2.9,8.1-.9,13.7c4.9,11.8,14.5,21.1,26.6,22.2a11.51,11.51,0,0,0,5.8-.8c3-1.3,3.8-3.2,5.2-8l10.5-33.9Z" style="fill: #6b2f34"/>
          <ellipse cx="704.97" cy="171.76" rx="11.7" ry="22.8" transform="translate(223.3 714.42) rotate(-62.1)" style="fill: #6b2f34"/>
          <path d="M736.65,140.15l-5.9-16.5-15.3-.4-5.1,5.4c-20,1.6-20.6,4.5-20.6,35,5.4,11.2,18.2,15.1,31,15.4C743.75,161.15,738.25,151.65,736.65,140.15Z" style="fill: #6b2f34"/>
          <path d="M745.05,269c-1.5.5-3.9,1.5-4.5,2.8-1.6,3.5-1.2,6.6,1.4,9.2,8.4,8.3,44.4,19.2,83.8,24.7,22.9,3.2,41.3,3.9,52,2.4,7.5-1.1,10.2-5.1,10.5-9.7Z" style="fill: #8cd9ff"/>
          <path d="M739.35,147h.2a7.58,7.58,0,0,1,5.1,2.3,7.22,7.22,0,0,1,2.1,5.2,7.4,7.4,0,0,1-7.4,7.2h-.1a7,7,0,0,1-5.2-2.3,7.4,7.4,0,0,1,5.3-12.4m0-8a15.4,15.4,0,0,0-.3,30.7h.3a15.4,15.4,0,0,0,.3-30.7Z" style="fill: #fff"/>
          <ellipse cx="750.82" cy="166.44" rx="10" ry="4.9" transform="translate(86.83 554.46) rotate(-42.8)" style="fill: #fff"/>
          <path d="M888,297c3.5,7.5-22.4,9.8-62.2,4.2-45.3-6.4-86.2-19.7-85.5-28.3s38.1-7.5,78.8-.1C855.35,279.35,884.55,289.75,888,297Z" style="fill: #fff"/>
          <path d="M750.45,165.85a64.89,64.89,0,0,0-3.27,91.72l.07.08,95.1-88.6A65.1,65.1,0,0,0,750.45,165.85Z" style="fill: #fff"/>
          <path d="M768.25,258.15c-20,7.1-28.1-1.7-22-18.4s26.3-41,50-57.5c31.5-22,56.9-22.6,46.2,5.8S794.75,248.85,768.25,258.15Z" style="fill: #8cd9ff"/>
          <path d="M769.25,255.75c-19.1,7.7-26.2-.1-19.5-15.7s26.8-38.7,49.3-54.5c29.4-20.8,52.2-22.4,41.5,3S794.35,245.65,769.25,255.75Z"/>
          <path d="M846.85,275.35c-6.2-1-12.9-2.9-21-5.2a8.3,8.3,0,0,1,4.5-15.9c13.5,3.8,20.9,5.8,27.3,5.1s12.9-4,24.4-12.3a8.3,8.3,0,0,1,11.6,1.8h0a8.4,8.4,0,0,1-1.9,11.6c-12,8.6-21.6,14.2-32.3,15.4A49.25,49.25,0,0,1,846.85,275.35Z" style="fill: url(#linear-gradient)"/>
          <path d="M845.35,259.25l-50.6-1.1c-8,4.6-16.6,12.8-20.3,18.4l78.1,13.9C852.15,279.75,849.05,266.15,845.35,259.25Z" style="fill: #7196ff"/>
          <path d="M802.55,259.65c7.2,12,18.3,15.6,29.2,15s12.6-8.8,13.6-15.4Z" style="fill: #5874f2"/>
          <path d="M852.35,290c1.7,2.6-8.4,3.4-26.5,1.1-24.3-3-51.3-9.9-51.6-13.9s23.9-1.9,46.6,2.6C838.15,283.15,850.75,287.35,852.35,290Z" style="fill: #7196ff"/>
          <path d="M866.55,238.25c-.2-10.5-3-11.5-7.2-11.4l-1.5,24.6C866.85,251.05,866.75,248.85,866.55,238.25Z" style="fill: #7196ff"/>
          <path d="M833.55,213.75c-3.6-.4-12.3-4.3-15.2-6.4-5.3-3.6-10-5.5-13.5-5.3a5.69,5.69,0,0,0-5.5,5.89v.11c.2,3.1,3.2,5.2,8.4,6.6S833.55,213.75,833.55,213.75Z" style="fill: #57f287"/>
          <path d="M838.15,195.45c-5.5-3.5-12.2.3-17.1,6s-7.4,9-13.5,10.7l17.5,1.3C841.35,208,843.25,198.85,838.15,195.45Z" style="fill: #47c46e"/>
          <path d="M862.85,221.05a15.39,15.39,0,0,0-10.3-11.9c-10.1-3.1-20.5-2.7-31-2.7s-21.5-.3-31.9,3a15.29,15.29,0,0,0-10.5,12.5,94.61,94.61,0,0,0,.6,27.4,14.91,14.91,0,0,0,11.1,11.6c10.6,3,20.7,2.8,31.3,2.6s21.2.2,31.3-3.2a14.31,14.31,0,0,0,9.9-11.9,114,114,0,0,0,.9-14.3A94.35,94.35,0,0,0,862.85,221.05Z" style="fill: #7196ff"/>
          <path d="M849.35,235.75c0,5.9-4.5,10.6-9.9,10.6h-21.2a11.2,11.2,0,0,1-10.7-10.9l-.3-7.7c-.2-6.1,4.4-11.1,10.2-11l21.8.4c5.6.1,10.2,5.2,10.2,11.2Z" style="fill: #b8cdff"/>
          <path d="M842.55,237.25h-7.2a2.22,2.22,0,0,1-2.3-2.1v-.1h0a2.1,2.1,0,0,1,2.2-1.9h7.2a2.2,2.2,0,0,1,2.3,2.09v.11h0A2.2,2.2,0,0,1,842.55,237.25Z" style="fill: #7fa0ff"/>
          <path d="M826.75,237.25h-7.2a2.22,2.22,0,0,1-2.3-2.1v-.1h0a2.09,2.09,0,0,1,2.2-1.8h7.2a2.3,2.3,0,0,1,2.3,2.3h0A2.22,2.22,0,0,1,826.75,237.25Z" style="fill: #7fa0ff"/>
          <ellipse cx="799.1" cy="225.78" rx="4.2" ry="3.8" transform="translate(526.32 1010.09) rotate(-86.6)"/>
          <ellipse cx="854.64" cy="226.43" rx="3" ry="4" transform="translate(-25.21 139.55) rotate(-9.2)"/>
          <path d="M783.35,227c-8.8.3-11.7-.6-11.3,13.8s2.1,12.1,12.5,11.8Z" style="fill: url(#linear-gradient-2)"/>
          <path d="M784.25,246.85l-.8-17.4c-5.6.1-6.1,0-5.9,7.6C778,246.45,777.05,247.05,784.25,246.85Z" style="fill: #b8cdff"/>
          <path d="M805.45,249.25c2.6,1.5,3.8,1.8,11.7,1.8a12.39,12.39,0,0,1-5.3,3.6c-4.6.9-6.2.5-7-.1s-.8-1.2-.8-3a11.26,11.26,0,0,1,.6-2,.6.6,0,0,1,.79-.31Z"/>
          <path d="M804.85,251.65H804c-.4,1.6-.2,2.7.6,3.4s3.9.8,7.3-.4A10.29,10.29,0,0,0,804.85,251.65Z" style="fill: #ff78b9"/>
          <path d="M793.05,285c3.8-5.1,6.5-8.6,6.6-8.6a.91.91,0,0,0-.15-1.27l0,0a.89.89,0,0,0-1.27.06l0,0c0,.1-3,3.8-7.1,9.3Z" style="fill: #5783ff"/>
          <rect x="887.71" y="225.27" width="3.25" height="42.2" rx="1.6" transform="matrix(0.18, -0.98, 0.98, 0.18, 489.37, 1078.01)" style="fill: #fff"/>
          <path d="M905.25,247.75l-31.4-5.6,4.2-23.2a2.21,2.21,0,0,1,2.53-1.82l.07,0,27,4.8a2.29,2.29,0,0,1,1.8,2.6Z" style="fill: #ffb108"/>
          <rect x="889.39" y="228.51" width="21.14" height="14.7" transform="translate(508.46 1079.84) rotate(-79.8)" style="fill: #ffe75c"/>
          <path d="M743.85,129c-3.6-10.2-7.6-13.3-13-13.4s-12,3.5-20.5,13.1l15.3.6a102.85,102.85,0,0,0,6.4,11.7c4.2,6.6,7.8,8.7,12.7,6.2S747.45,139.05,743.85,129Z" style="fill: #6b2f34"/>
          <g>
            <path d="M730.45,141.85l1.6-1c-3.4-6-6.4-11.6-7.9-14.4A.9.9,0,0,0,723,126a.3.3,0,0,0-.11.06,1,1,0,0,0-.4,1.3C724,130.25,727,135.75,730.45,141.85Z"/>
            <path d="M724.05,154.25a84.35,84.35,0,0,1-12.1-.6l-4.8-.4a.9.9,0,0,0-.9.5.8.8,0,0,0,.1,1c4,5.2,3.5,12.5,2.8,16.4a1,1,0,0,0,.8,1.1h.1a1,1,0,0,0,1-.8c.6-3.8,1.1-10.6-2.1-16.2l2.9.3c5.3.4,9.4.8,12.3.6A12.1,12.1,0,0,1,724.05,154.25Z"/>
            <path d="M728.35,143.65c-3.7-2.7-12-5.2-22.3-8.4l-2.8-.9a1,1,0,0,0-1.2.7.81.81,0,0,0,.43,1l.17.05,2.9.9c9.6,3,18.1,5.6,21.6,8.1A14.6,14.6,0,0,1,728.35,143.65Z"/>
          </g>
          <path d="M716.05,188.55h-.3c-11.3-2.4-20.1-7.9-26.2-16.2a1.5,1.5,0,0,1,.3-2,1.4,1.4,0,0,1,1.9.3c5.7,7.8,14,12.9,24.6,15.2a1.6,1.6,0,0,1,1.1,1.7A1.51,1.51,0,0,1,716.05,188.55Z" style="fill: #591b1f"/>
          <rect x="899.31" y="223.92" width="2.92" height="14.7" transform="translate(513.64 1076.84) rotate(-79.8)" style="fill: #d11583"/>
          <rect x="897.7" y="233.09" width="2.92" height="14.7" transform="translate(503.3 1082.81) rotate(-79.8)" style="fill: #d11583"/>
          <path d="M892.56,213.17l6.63,2.54a1.88,1.88,0,0,1,1.1,2.44h0a1.89,1.89,0,0,1-2.44,1.08l-6.64-2.53a1.9,1.9,0,0,1-1.1-2.44h0A1.9,1.9,0,0,1,892.56,213.17Z" style="fill: #fff"/>
          <path d="M772.05,346.45a1.2,1.2,0,0,1-.8-.2c-3.7-2.5-16.1-11.3-20.8-21.4a1.41,1.41,0,0,1,1.11-1.65,1.39,1.39,0,0,1,1.39.55c4.4,9.3,16.3,17.8,19.9,20.2a1.39,1.39,0,0,1,.24,2,1.41,1.41,0,0,1-1,.54Z" style="fill: #591b1f"/>
          <path d="M727.15,145.15c4.9,3.1,2.5,9.4-4.1,9.2l-5.4-6.2Z" style="fill: #6b2f34"/>
          <path d="M514.25,270.05c-8.4-3.9-10.9-4.3-29.1-.2a.49.49,0,0,0-.29.64.51.51,0,0,0,.09.16c11.2,13.4,9.3,12.9,34.4,8.7Z" style="fill: #ff78b9"/>
          <path d="M521.25,280.25c-2.8-20.8-2.3-22.2-24.2-32.2a.5.5,0,0,0-.6.38v0C496.45,267.15,498.85,267.05,521.25,280.25Z" style="fill: #ff78b9"/>
          <path d="M503.75,296.35c10.8,13.6,25.2,34.6,38.4,70.7,3.8,10.4,9.7,6.3,28.6-4.8,22.8-13.4,38.2-31.8,40.5-37.5,1-2.5,1.7-4.5,1-6s-3.1-3.1-7.6-5.4c3.9-8,3.2-8.3-1.6-11.1,7.7-15.1.9-16.5-8.3-18.7-15.2-3.9-31.7-9.6-61.6-13.2-16.7-2.1-14.8-1.8-17.3,8.2-5.9-2-11.3-2.9-12.7-2.4s-1.9,1.6-3.2,5.1c-1.8,5-2.3,6.3-1,8.2S502.75,295.05,503.75,296.35Z" style="fill: url(#linear-gradient-3)"/>
          <path d="M598.15,285.65l-1.5,9.1C603.15,289.55,605.45,288.85,598.15,285.65Z" style="fill: #d11583"/>
          <path d="M525,272.15c.1.7,4,3,11,7.4l7.4-6.3C531.25,272.25,524.85,271.35,525,272.15Z" style="fill: #d11583"/>
          <path d="M473.05,190.15c-28.3,6.9-36.3,16.2-36.3,27.9,58.1,7.6,135.9,6.3,230.2-62.2-7.3-13.3-23.3-26.3-63.6-17.6-16.1,3.5-25,.2-40.8-2.8s-36.8-4-50.2,15.8S496.05,184.45,473.05,190.15Z" style="fill: #cf8a5c"/>
          <path d="M436.85,219.45c1.5,12.1,14.9,21.2,78.5,6.3a473.06,473.06,0,0,1,69.9-10.9c68-5.7,96.3-41.4,79-63.1-19.4-24.5-52.1-13.2-91.9,25.7-28.2,27.7-57.5,24.2-92.1,22.7S435.65,209.05,436.85,219.45Z" style="fill: #aa5f44"/>
          <path d="M626.75,200.85c-25.1,8.2-44.3,3.7-66.9,7.7-13.4,2.3-33.8,8.1-51.8,13.8-24.7,7.9-52.8,8.7-61.7,3.2s-6.5-16.1,11.8-18.8c16.5-2.3,32.7,2.4,70.9-2.6,43.5-5.6,59.6-23.1,78.2-39.3,11.5-10.1,30.7-18.3,42.9-13.5s13.4,14.9,12,20.3C658.55,185.85,641.85,195.85,626.75,200.85Z" style="fill: #8f473b"/>
          <g>
            <path d="M556.55,206.65h0a1.4,1.4,0,0,0,1.4-1.3,1.5,1.5,0,0,0-1.3-1.4,59.78,59.78,0,0,1-14-2.1l-5.4,1.1A65.23,65.23,0,0,0,556.55,206.65Z" style="fill: #6b2f34"/>
            <path d="M534.25,211.05h.5c0-.1,0-.1.1-.1h.1v-.2h.1v-.2H535a.09.09,0,0,0-.1-.1h-.3c0-.1,0-.1-.1-.1h-1a87.82,87.82,0,0,1-41.1-2h-8.7a84,84,0,0,0,26.6,6.1c-27.6,3.8-48.8,2.9-62.3-2.7a17.25,17.25,0,0,0-2.7,1.7c9.3,4.3,21.5,6,34.7,6a242.65,242.65,0,0,0,35.7-3.1c-19.8,6.4-37.7,11.1-58,14.2a104,104,0,0,0,13.9.3c20.7-4.1,39.8-10,62.6-17.8Z" style="fill: #6b2f34"/>
            <path d="M648.25,190.05c-19.4,7.4-52.4,11.1-65.7,6.7,33-6.2,58.1-16,72.7-42.6l-2.2-1.5c-10.2,19-27.2,33.3-71,41.5a1.3,1.3,0,0,0-1.13,1.45l0,.15a1.19,1.19,0,0,0,.6.8,1.35,1.35,0,0,0-.35,2.58l0,0c4.1,1.5,10.1,2.2,17.1,2.2a167.68,167.68,0,0,0,40.3-5.5A61.56,61.56,0,0,0,648.25,190.05Z" style="fill: #6b2f34"/>
            <path d="M568.35,205.15a1,1,0,0,0,.7-.2c8.3-5.2,11.7-13.3,13.3-19.6l-3.4,2.2c-1.8,5.3-5,11.2-11.3,15.2a1.18,1.18,0,0,0-.62,1.57,1,1,0,0,0,.12.23A1.41,1.41,0,0,0,568.35,205.15Z" style="fill: #6b2f34"/>
            <path d="M590.85,187.45a1.29,1.29,0,0,0-.4,1.79h0a1.42,1.42,0,0,0,1.1.6l.8-.2,1.5-1c14.2-9.5,23.9-16,30.1-34.4l-3.5,1.7c-5.8,15.6-14.6,21.4-28.1,30.5Z" style="fill: #6b2f34"/>
          </g>
          <path d="M590.35,322.25l-71.6-17c6.9-9.5,13-15.6,18.8-29a53.85,53.85,0,0,0,4-26.3c-1.7-18.9-4.9-25.8-9.1-41.3h0c21.7-3.4,43.5-11.2,59.1-21.8C607.05,227.15,608,250.65,590.35,322.25Z" style="fill: url(#linear-gradient-4)"/>
          <path d="M586.65,265.25c-7.7,9.1-13.8,10.8-16.4,5-1.9-4.2-.6-9.2-.6-9.2Z" style="fill: #fff"/>
          <path d="M629.15,233.05c-.2-4.1-4.6-6.2-8.6-2.9-22.7,19.6-24.7,10.4-36.5,23.8-9.4-11.3-18.1-6-65.4-16.6-6.9-1.5-7.2,5.1-1.2,11.2s20,8.5,26.9,7.3c4.3,13.9,15.3,15.4,39.7,4.5,31,10.1,34.3.7,30-9.3C628.55,245.65,629.35,237.05,629.15,233.05Z" style="fill: #6b2f34"/>
          <path d="M571.45,231.05c1.5,3.2,1.1,6.4-.7,7s-3.7-1.5-5.2-4.7-1.9-6.3-.1-7S570.05,227.85,571.45,231.05Z"/>
          <path d="M595.35,230.85c-.3,3.6-2.2,6.1-4.2,5.7s-2.4-3.1-2-6.7,1.5-6.4,3.4-6S595.75,227.35,595.35,230.85Z"/>
          <path d="M563.35,145.35c17,0,23.8-3.7,40-7.1-16.1,3.5-25,.2-40.8-2.8-2.7-.5-5.5-1-8.4-1.3a21.09,21.09,0,0,0-3.1,2.3C546.45,141.15,551.25,145.35,563.35,145.35Z" style="fill: #edb997"/>
          <path d="M551.15,176.45c-1.9,5.8-10.7,10.4-19.5,10.4s-14.6-4.7-12.4-10.4c3.4-8.6,16.1-16.7,24.9-16.7S553.15,170.75,551.15,176.45Z" style="fill: #edb997"/>
          <path d="M529,275.15c24.4,15.4,42,26,50.8,26s13.4-3.4,19.7-8.6l-7.2,36.8L519,313.85,505.35,289Z" style="fill: url(#linear-gradient-5)"/>
          <path d="M604.65,313.35c-5.5,9.8-20.9,23.2-29.8,28.7a1.1,1.1,0,0,0-.3,1.5,1.11,1.11,0,0,0,.9.6l.6-.2c9.1-5.7,24.9-19.4,30.6-29.5Z" style="fill: #d11583"/>
          <path d="M603.05,302.25h0c-19.3,21.3-23.4,24.4-41.6,13.2-11.2-6.9-31.3-20.4-45.6-36.9l-4-1.2c14.6,17.9,36.5,32.7,48.4,40,7.3,4.5,12.7,6.7,17.4,6.7,8.6,0,15.2-7.1,27.3-20.6Z" style="fill: #d11583"/>
          <path d="M499.25,172.05c11.9-3.2,16.3-15,15.3-23.8C509,155.35,502.65,167.05,499.25,172.05Z" style="fill: #edb997"/>
        </g>
        <g>
          <path d="M285.15,163c1-5.2-1.6-10.3-7.6-10.6s-9.2,1.3-16.2,3.8a19.23,19.23,0,0,1-11.6.5c-17.8-4.8-22.5-5-26.5-4.1s-5.3,2.9-4.6,7.3,2.9,7.2,8.7,9.8,18.7,9.1,26.1,13.6,16.2,6.8,22.3,10.9,21.8,17.9,27.4,23.7,7.7,5,8.5,4.3.8-1.2,1.1-6.9a27,27,0,0,0-3.5-15.3c-2.8-5.3-9.3-13.1-12.6-19.6S292.45,164.65,285.15,163Z" style="fill: #ff8c19"/>
          <path d="M296.65,180.35c-3.3-6.6-4.2-15.7-11.5-17.4-11-1.6-20.9,2.5-27.8,2.7-4.9.2-16.4-1.1-21.1-1.6s-5.6-.1-6.4.5-1.1,1.6-.3,2.1l-.6,1.8,6.6,3.3,28.9,14.4,15.2,9.6,17.7,14.6,12.3,11.6h2.2c.6-.6.6-1.7.9-6.8a27.78,27.78,0,0,0-3.5-15.3C306.45,194.65,300,186.85,296.65,180.35Z" style="fill: url(#linear-gradient-6)"/>
          <path d="M311.65,222.15c.4-.3.6-.6.8-1.8h0c-.7,2.7-3.2-.2-5-2.5s-6.7-10.6-16.2-16c-17.3-10-20-18.8-39.3-23.5-9.1-2.2-17.7-9.1-20.4-10.6s-3.5-1.7-3.2-2.9a12.75,12.75,0,0,0-.8-8.3c-1.6-3.6-5.3-4.9-8-1.7a6.11,6.11,0,0,0-.9,5c.6,4.3,2.9,7.2,8.7,9.8s18.7,9.1,26.1,13.6,16.2,6.8,22.3,10.9,21.8,17.9,27.4,23.7S310.85,222.85,311.65,222.15Z" style="fill: #ed5f00"/>
          <path d="M314.65,228.35c-.6-3.2-.2-6,.5-9.4s0-9.5-5.5-18.2l-4.6,13.9c4.5,6.6,6.3,12.1,6,15.3s-.6,8.8,2.6,8.4S315.35,231.55,314.65,228.35Z" style="fill: #ffc619"/>
          <path d="M238.65,169.35a31.24,31.24,0,0,0,6.6,4.1,60.42,60.42,0,0,0,9.5,3.5c.2,0,.4,0,.4-.2,0-3.7-4.5-7.2-8-8.1s-7.3-.8-8.6.2S238.55,169.15,238.65,169.35Z" style="fill: #ff78b9"/>
          <path d="M285.55,174.05c-.5,2.5-4.9,3.7-9.8,2.7s-8.5-3.9-7.9-6.5,3.5-3.8,7.2-1.6a19.4,19.4,0,0,0,5,1.9C283.85,171.35,286,172.05,285.55,174.05Z" style="fill: #eb459f"/>
          <path d="M290.65,191.45a22.87,22.87,0,0,0,3.8,2.5c2.2,1.2,2.9,1.9,2,2.9s-4.4.8-7.3-1.2-4.5-4.5-3.4-5.8S288.35,189.65,290.65,191.45Z" style="fill: #eb459f"/>
          <path d="M309.65,198.55a6.45,6.45,0,0,0-3.7-3c-2.3-.8-3.6.4-3.7,2s1.6,4.7,5.4,8.3,5.4-.2,4.8-2A38.84,38.84,0,0,0,309.65,198.55Z" style="fill: #eb459f"/>
          <path d="M225.55,158.35c-1-1.9-2.7-2.8-4-2s-1.3,3.1-.4,5,2.8,2.8,4,2S226.55,160.25,225.55,158.35Z" style="fill: #ff8c19"/>
          <path d="M311.15,218.65a.8.8,0,0,1-.89-.7.34.34,0,0,1,0-.1c-.5-4.3-2.1-6.4-5.5-9.3a.92.92,0,1,1,1.2-1.4h0c3.7,3.2,5.5,5.6,6.1,10.5a.9.9,0,0,1-.79,1h-.11Z" style="fill: #ffe75c"/>
          <polygon points="435.35 306.35 382.05 325.15 366.25 321.85 368.35 306.45 373.05 299.75 426.35 280.85 435.35 306.35" style="fill: #ffc619"/>
          <path d="M427.15,309.25c-6,2.1-12.9-1.9-15.4-8.9s.4-14.4,6.4-16.6l8.2-2.9,9,25.5Z" style="fill: #fff"/>
          <path d="M430,308.25c-6.1,2.1-13-1.8-15.4-8.9s.3-14.4,6.4-16.5l8.1-2.9,9,25.4Z" style="fill: #eb459f"/>
          <ellipse cx="433.63" cy="292.57" rx="11.6" ry="13.5" transform="translate(-72.79 161.53) rotate(-19.5)" style="fill: #ff78b9"/>
          <polygon points="382.05 325.15 360.55 323.75 357.15 314.35 373.05 299.75 369.45 306.85 379.95 311.65 374.85 321.95 382.05 325.15" style="fill: #ffe75c"/>
          <path d="M360.55,323.75l-3.4-9.4-7.2,6.7a1.19,1.19,0,0,0-.11,1.69,1.2,1.2,0,0,0,.81.41Z"/>
          <path d="M360.55,323.75l-3.4-9.4-7.2,6.7a1.19,1.19,0,0,0-.11,1.69,1.2,1.2,0,0,0,.81.41Z"/>
        </g>
        <path d="M390.45,208.35a23.65,23.65,0,0,1-10.8-16.7l-1.8-11.7a1.2,1.2,0,0,0-1.2-1h0a1.2,1.2,0,0,0-1.1,1l-1.8,11.7a23.59,23.59,0,0,1-10.8,16.7l-1.5,1a1.19,1.19,0,0,0-.5,1h0a1.39,1.39,0,0,0,.5,1l1.5.9a24,24,0,0,1,10.8,16.8l1.8,11.7a1.3,1.3,0,0,0,1.1,1h0a1.3,1.3,0,0,0,1.2-1l1.8-11.7a24,24,0,0,1,10.8-16.8l1.5-.9a1.39,1.39,0,0,0,.5-1h0a1.19,1.19,0,0,0-.5-1Z" style="fill: #57f287"/>
        <path d="M668.05,301.15a14.24,14.24,0,0,1-6.3-9.8l-1.1-6.8a.6.6,0,0,0-.6-.6h0c-.4,0-.7.2-.7.6l-1,6.8a14.2,14.2,0,0,1-6.3,9.8l-.9.5a.7.7,0,0,0-.3.6h0a.61.61,0,0,0,.3.6l.9.6a14,14,0,0,1,6.3,9.7l1,6.9c0,.3.3.5.7.5h0a.6.6,0,0,0,.6-.5l1.1-6.9a14,14,0,0,1,6.3-9.7l.8-.6a.7.7,0,0,0,.4-.6h0a.78.78,0,0,0-.4-.6Z" style="fill: #ffe75c"/>
        <path d="M877.05,169a9,9,0,0,1-3.8-6l-.6-4.2a.49.49,0,0,0-.5-.3h0c-.2,0-.3.1-.4.3l-.6,4.2a8.81,8.81,0,0,1-3.9,6l-.5.3a.48.48,0,0,0-.2.4h0a.51.51,0,0,0,.2.4l.5.3a8.77,8.77,0,0,1,3.9,6l.6,4.2c.1.2.2.3.4.3h0a.52.52,0,0,0,.5-.3l.6-4.2a9,9,0,0,1,3.8-6l.6-.3a.51.51,0,0,0,.2-.4h0a.48.48,0,0,0-.2-.4Z" style="fill: #7196ff"/>
        <path d="M475.25,324.45a8.21,8.21,0,0,1-3.8-5.9l-.7-4.2a.4.4,0,0,0-.4-.4h0a.4.4,0,0,0-.4.4l-.6,4.2a8.59,8.59,0,0,1-3.9,5.9l-.5.4c-.1.1-.2.2-.2.3h0c0,.1.1.2.2.3l.5.4a8.55,8.55,0,0,1,3.9,5.9l.6,4.2a.4.4,0,0,0,.4.4h0a.4.4,0,0,0,.4-.4l.7-4.2a8.17,8.17,0,0,1,3.8-5.9l.6-.4a.42.42,0,0,0,.1-.3h0a.41.41,0,0,0-.1-.3Z" style="fill: #1927bc"/>
        <path d="M490.05,161.55a4.74,4.74,0,0,1-2.1-3.2l-.3-2.2c0-.2-.1-.2-.2-.2h0c-.1,0-.2,0-.3.2l-.3,2.2a4.39,4.39,0,0,1-2.1,3.2l-.2.2a.2.2,0,0,0-.2.2h0l.2.2.2.2a4.39,4.39,0,0,1,2.1,3.2l.3,2.2.3.2h0a.2.2,0,0,0,.2-.2h0l.3-2.2a4.72,4.72,0,0,1,2.1-3.2l.3-.2V162h0c0-.1,0-.2-.1-.2Z" style="fill: #fff"/>
      </g>
    </g>
  </g>
</svg>
