<svg xmlns="http://www.w3.org/2000/svg" xmlns:xlink="http://www.w3.org/1999/xlink" width="910" height="410" viewBox="0 0 910 410">
  <defs>
    <linearGradient id="linear-gradient" x1="859.4" y1="-852.27" x2="807.82" y2="-843.21" gradientTransform="matrix(1, 0, 0, -1, 0, -537.65)" gradientUnits="userSpaceOnUse">
      <stop offset="0.19" stop-color="#fff"/>
      <stop offset="1" stop-color="#dad7ca"/>
    </linearGradient>
    <linearGradient id="linear-gradient-2" x1="629.04" y1="-755.96" x2="743.28" y2="-880.8" gradientTransform="matrix(1, 0, 0, -1, 0, -537.65)" gradientUnits="userSpaceOnUse">
      <stop offset="0.13" stop-color="#fff"/>
      <stop offset="0.51" stop-color="#f0efea"/>
      <stop offset="1" stop-color="#dad7ca"/>
    </linearGradient>
  </defs>
  <g id="Banner-Engineering_Design-Right" data-name="Banner-Engineering&amp;Design-Right">
    <g id="engineering-left">
      <g>
        <g>
          <rect x="329.7" y="207.27" width="280.2" height="145.53" rx="6" style="fill: #242145"/>
          <path d="M382,207.27H603.9a6,6,0,0,1,6,6v133.6a6,6,0,0,1-6,6H382V207.27Z" style="fill: #423d80"/>
          <rect x="340.8" y="218.37" width="30.2" height="30.16" rx="6.8" style="fill: #5865f2"/>
          <path d="M419.5,225.67H396.7A3.69,3.69,0,0,1,393,222h0a3.69,3.69,0,0,1,3.7-3.67h22.8a3.69,3.69,0,0,1,3.7,3.67h0A3.69,3.69,0,0,1,419.5,225.67Z" style="fill: #5865f2"/>
          <path d="M419.5,315.37H396.7a3.69,3.69,0,0,1-3.7-3.68h0a3.69,3.69,0,0,1,3.7-3.67h22.8a3.69,3.69,0,0,1,3.7,3.67h0A3.69,3.69,0,0,1,419.5,315.37Z" style="fill: #7196ff"/>
          <path d="M419.5,335.27H396.7a3.69,3.69,0,0,1-3.7-3.68h0a3.69,3.69,0,0,1,3.7-3.67h22.8a3.69,3.69,0,0,1,3.7,3.67h0A3.69,3.69,0,0,1,419.5,335.27Z" style="fill: #5865f2"/>
          <circle cx="355.8" cy="276.77" r="15.1" style="fill: #ffc619"/>
          <circle cx="355.8" cy="320.17" r="15.1" style="fill: #57f287"/>
          <circle cx="416.7" cy="239.87" r="6.5" style="fill: #8cd9ff"/>
          <circle cx="416.7" cy="260.57" r="6.5" style="fill: #5865f2"/>
          <circle cx="445.2" cy="263.37" r="11" style="fill: #eb459f"/>
          <path d="M434.2,218.37a11,11,0,0,0,22,0Z" style="fill: #7196ff"/>
          <rect x="467.3" y="257.37" width="95.8" height="77.37" rx="3.4" style="fill: #5865f2"/>
          <path d="M467.3,218.37h51.3v8.1a3.4,3.4,0,0,1-3.4,3.4H470.7a3.4,3.4,0,0,1-3.4-3.4v-8.1Z" style="fill: #ff78b9"/>
          <path d="M467.3,301.27l24.1-21.7a9.8,9.8,0,0,1,13.5.3l30.9,30.9,10.2-10.2a9.9,9.9,0,0,1,13.9,0l3.2,3.3v-43.1a3.4,3.4,0,0,0-3.3-3.4H470.6a3.4,3.4,0,0,0-3.3,3.4Z" style="fill: #808aff"/>
          <path d="M453.4,135l-1-1.1a1,1,0,0,0-1.4-.19l-.1.09-1.8,1.5a6,6,0,0,0-2.1-1.1v-2.1a1.1,1.1,0,0,0-1-1.2h-.71a1.1,1.1,0,0,0-1.2,1h0v2a7.23,7.23,0,0,0-2.5.7l-1.4-1.6a1.1,1.1,0,0,0-1.5-.1l-1.1,1a1.11,1.11,0,0,0-.15,1.55l.05.05,1.3,1.5a8,8,0,0,0-1,2.4l-2.1-.2a1.2,1.2,0,0,0-1.1,1v.8a1,1,0,0,0,.89,1.09h.11l2.1.2a7,7,0,0,0,.8,2.3l-1.8,1.5a1.1,1.1,0,0,0-.1,1.5l1,1.2a1.2,1.2,0,0,0,1.6.1l1.8-1.6a9.19,9.19,0,0,0,2.1.8l-.2,2.5a1,1,0,0,0,.89,1.09h.91a1,1,0,0,0,1.09-.9.34.34,0,0,0,0-.1l.2-2.6a6.7,6.7,0,0,0,2-.6l1.8,2a1,1,0,0,0,1.4.18.39.39,0,0,0,.1-.08l1.2-1a1.1,1.1,0,0,0,.1-1.5l-1.8-2.1a6.63,6.63,0,0,0,.9-1.9l2.6.2a1,1,0,0,0,1.09-.9.34.34,0,0,0,0-.1v-.7a1.2,1.2,0,0,0-1-1.2h-2.5a5.43,5.43,0,0,0-.6-2.2l1.9-1.7a1,1,0,0,0,.29-1.39Zm-6.3,8.8a3.31,3.31,0,0,1-2.5.8,3.92,3.92,0,0,1-2.5-1.2,3.6,3.6,0,0,1,.4-5,3.38,3.38,0,0,1,2.6-.8,3,3,0,0,1,2.4,1.2,3.5,3.5,0,0,1-.33,4.94l-.07.06Z" style="fill: #fff"/>
          <polygon points="469 154.57 464 154.17 465.1 138.57 470.2 138.97 469 154.57" style="fill: #bfbdb1"/>
          <path d="M454.8,152.47l-18.4-1.3a2.1,2.1,0,0,0-2.2,1.9h0a1.81,1.81,0,0,0,.4,1.3,39.87,39.87,0,0,0,16.5,13.4,1.9,1.9,0,0,0,2.52-.92,1.78,1.78,0,0,0,.18-.78Z" style="fill: #bfbdb1"/>
          <path d="M539.8,164.27l-51.5-17.8a6,6,0,0,1-2.8-2.2c-3.3-4.7-16-21-18.1-23.6s-9.1-7.2-19.8-2.2c-8.4,3.8-10.9,7.2-11.6,8.5a2.32,2.32,0,0,0-.3,1.1h0a2.4,2.4,0,0,0,2.2,2.5l15.6,1a2.69,2.69,0,0,1,2.5,2.88v0l-2,29.1,24.9-3.7a5.83,5.83,0,0,1,3.9.4l49.1,22.9a10.24,10.24,0,0,0,7.9-18.9Zm-66.2-22.7-.7,10.4a1.8,1.8,0,0,1-1.89,1.71h-.11l-8.7-.6a1.9,1.9,0,0,1-1.8-2h0l.7-10.3a1.79,1.79,0,0,1,1.79-1.81h.21l8.8.6a1.89,1.89,0,0,1,1.7,2Zm66.9,34.1a5,5,0,0,1-9.3-3.9,5.1,5.1,0,0,1,6.6-2.7,5,5,0,0,1,2.73,6.52l0,.08Z" style="fill: #dad7ca"/>
        </g>
        <g>
          <rect x="696.9" y="208.77" width="157.2" height="157.18" rx="14.5" style="fill: #66bcff"/>
          <path d="M854.8,344.87c-8.7,0-18.6-3.5-35.1-9.2L809,332a11.9,11.9,0,0,1-7.3-15.1,11.69,11.69,0,0,1,14.82-7.36l.18.06,10.8,3.7c14.9,5.2,24.8,8.6,28.8,7.7s8.7-7.3,16.9-17.2c2.6-3.2,5.5-6.8,8.9-10.8a11.82,11.82,0,1,1,18.1,15.2c-3.3,3.9-6.1,7.5-8.7,10.6-12,14.7-18.7,22.8-30,25.4A37.7,37.7,0,0,1,854.8,344.87Z" style="fill: url(#linear-gradient)"/>
          <path d="M853,321.07l-3-.6-5.8,23,2.9.6Z" style="fill: #dad7ca"/>
          <path d="M863.6,315.17l16.1,17.4,2.1-2.3-16.2-17.4Z" style="fill: #dad7ca"/>
          <path d="M822.5,336.57l2.9,1,8.5-22.1-2.9-1Z" style="fill: #dad7ca"/>
          <path d="M822.6,324.67c-5.5-17.6-12.2-22-24.6-24.2l-42-7.1a30.79,30.79,0,0,0-32.8,16.7l-16.9,34a27.47,27.47,0,0,0-1.7,20.2,14.42,14.42,0,0,0,6.9,1.7H829.4a33.36,33.36,0,0,0,.4-14.1Z" style="fill: #fff"/>
          <path d="M732,354.07a1.12,1.12,0,0,1-.8-.3l-12.9-10.4a1.4,1.4,0,1,1,1.13-2.56,1.42,1.42,0,0,1,.57.46l12.9,10.4a1.31,1.31,0,0,1,.27,1.82l-.07.08A1.63,1.63,0,0,1,732,354.07Z" style="fill: #898989"/>
          <path d="M822.7,216.37c.4-6.8,2.9-21.9,6.5-35.3s14.5-13.9,22-9c1,.7-14.4,49.1-19.4,50.9S822.3,222.37,822.7,216.37Z" style="fill: #fff"/>
          <path d="M853.9,174.27a19.65,19.65,0,0,0-2.7-2.2l-16.8,50c7.4-2.9,23.8-10.1,28.6-20.7C866,194.67,865.9,185.57,853.9,174.27Z" style="fill: #ff78b9"/>
          <path d="M728.4,361.37a1.62,1.62,0,0,1-.9-.3l-12.8-10.4a1.4,1.4,0,0,1-.23-2l0,0a1.5,1.5,0,0,1,1.9-.2l12.8,10.4a1.4,1.4,0,0,1,.23,2l0,0A1.19,1.19,0,0,1,728.4,361.37Z" style="fill: #898989"/>
          <path d="M814.6,313.18l-69.37-2.31a16.39,16.39,0,0,1-15.84-16.93h0l.29-8.7h0l97.94,3.25h0l-.43,13A12.21,12.21,0,0,1,814.6,313.18Z" style="fill: #7196ff"/>
          <path d="M816.4,288.07l-.8,25.1h-2.7l.8-25.2Z" style="fill: #5874f2"/>
          <polygon points="788.4 287.17 787.6 312.27 784.9 312.27 785.7 287.07 788.4 287.17" style="fill: #5874f2"/>
          <rect x="745.93" y="297.31" width="25.2" height="2.73" transform="translate(434.87 1046.88) rotate(-88.1)" style="fill: #5874f2"/>
          <path d="M737.2,221.17c-.9-6.8-4.5-21.6-9-34.8s-15.5-12.8-22.7-7.3c-4.6,36.1,17.9,47.9,23,49.4S738,227.07,737.2,221.17Z" style="fill: #fff"/>
          <path d="M705.5,179.07a18.79,18.79,0,0,0-2.5,2.3c-11.2,12.2-10.6,21.3-7.1,27.7,5.6,10.3,22.4,16.3,30,18.6Z" style="fill: #ff78b9"/>
          <path d="M869.3,243.37c4.5-.2,8.4,6,8.8,13.9s-2.9,14.5-7.4,14.7l-15.3.7-1.3-28.6Z" style="fill: #1927bc"/>
          <path d="M722.5,227.07c5.8-5,6.7-9.5,9.6-17.9,6.3-17.9,19.5-35.6,44.8-36.2s38.8,13.3,46.4,29.5c2.9,6.2,4.9,10.6,20.2,19.9,7.6,4.7,22.1,13.1,22.9,34a37.8,37.8,0,0,1-35.1,38.9l-89.1,4.2a37.6,37.6,0,0,1-38.7-35.8C702.7,245.77,713.6,234.57,722.5,227.07Z" style="fill: #fff"/>
          <path d="M776.1,171.77h-.2a2.3,2.3,0,0,1-2.1-2.4c0-.3,1.6-29.7-17-37-7.3-2.8-17.7-1.7-30.2,3.4a2.31,2.31,0,1,1-1.7-4.3c13.8-5.5,25-6.6,33.5-3.3s15.4,11.9,18.3,24.2a66.63,66.63,0,0,1,1.6,17.3A2.3,2.3,0,0,1,776.1,171.77Z"/>
          <path d="M802.51,178.34l-50.74,2.39h0l-.25-5.29a7.3,7.3,0,0,1,7-7.64l36.16-1.7a7.29,7.29,0,0,1,7.63,6.94l.25,5.3Z" style="fill: #7196ff"/>
          <circle cx="725.8" cy="133.67" r="12.4" style="fill: #7196ff"/>
          <path d="M819,216.67c1.8,1.4.1,4.7-2.7,8.2s-5.8,6.1-7.7,4.6-.1-4.7,2.7-8.3S817.1,215.17,819,216.67Z"/>
          <path d="M796,236.37c-.1-2.3,8.2-2.7,8.3-.4s-2.3,3.7-4,3.7S796.1,238.67,796,236.37Z"/>
          <path d="M801.1,251.57c-2.6,8-8.9,13.2-14.3,11.6s-8-9.1-6-17.3Z" style="fill: #ffaed7"/>
          <path d="M714.2,250.77c4.4-.2,8.4,6,8.7,13.9s-2.9,14.5-7.4,14.7l-15.2.7-1.4-28.6Z" style="fill: #5874f2"/>
          <ellipse cx="699.48" cy="266.03" rx="8.1" ry="14.3" transform="translate(-11.76 33.25) rotate(-2.7)" style="fill: #7196ff"/>
          <path d="M763.5,219.27c-1.7,1.6.4,4.8,3.5,8.1s6.4,5.3,8.1,3.7,0-5.2-3.1-8.5S765.2,217.57,763.5,219.27Z"/>
          <path d="M764.8,247.47a1.3,1.3,0,0,1-1.1-.5l-7.6-9.3a1.4,1.4,0,1,1,1.82-2.13,1.29,1.29,0,0,1,.28.33l7.6,9.4a1.3,1.3,0,0,1-.12,1.83l-.08.07A1.12,1.12,0,0,1,764.8,247.47Z" style="fill: #ffaed7"/>
          <path d="M756.2,247.87a1.19,1.19,0,0,1-1-.5l-7.7-9.4a1.4,1.4,0,0,1,2.1-1.7l7.7,9.3a1.4,1.4,0,0,1-.17,2l0,0A1.62,1.62,0,0,1,756.2,247.87Z" style="fill: #ffaed7"/>
          <path d="M747.7,248.17a1.63,1.63,0,0,1-1.1-.5l-7.6-9.3a1.4,1.4,0,0,1,.17-2l0,0a1.3,1.3,0,0,1,1.83.12.27.27,0,0,1,.07.08l7.6,9.4a1.3,1.3,0,0,1-.12,1.83l-.08.07A1.12,1.12,0,0,1,747.7,248.17Z" style="fill: #ffaed7"/>
          <path d="M820.1,244.87a1,1,0,0,1-.7-.2,1.31,1.31,0,0,1-.48-1.78l.08-.12,6.9-10a1.4,1.4,0,0,1,1.9-.3,1.29,1.29,0,0,1,.37,1.8.61.61,0,0,1-.07.1l-6.8,9.9A1.39,1.39,0,0,1,820.1,244.87Z" style="fill: #ffaed7"/>
          <path d="M828.7,244.57a1.12,1.12,0,0,1-.8-.3,1.29,1.29,0,0,1-.37-1.8.36.36,0,0,1,.07-.1l6.8-9.9a1.37,1.37,0,0,1,2.3,1.5l-6.9,10A1.42,1.42,0,0,1,828.7,244.57Z" style="fill: #ffaed7"/>
          <path d="M837.2,244.17a1.33,1.33,0,0,1-.8-.2,1.4,1.4,0,0,1-.3-1.9l6.9-10a1.36,1.36,0,0,1,2.2,1.6l-6.9,9.9A1.1,1.1,0,0,1,837.2,244.17Z" style="fill: #ffaed7"/>
          <circle cx="891.1" cy="300.57" r="18.9" style="fill: #7196ff"/>
          <path d="M734.6,331.37a11.84,11.84,0,0,1-4.8-1c-56.7-25.2-77.2-42.8-103.2-110.9a11.9,11.9,0,0,1,6.9-15.3,11.71,11.71,0,0,1,15.15,6.66.78.78,0,0,0,.05.14c12.4,32.3,22.8,51,35.8,64.3s29.4,22.1,54.9,33.4a11.9,11.9,0,0,1-4.8,22.7Z" style="fill: url(#linear-gradient-2)"/>
          <circle cx="637.7" cy="215.17" r="18.9" style="fill: #7196ff"/>
          <path d="M641.4,220.27H641a12.1,12.1,0,0,1-8.6-11.7,1.31,1.31,0,0,1,1.3-1.31h.1a1.3,1.3,0,0,1,1.3,1.3,9.5,9.5,0,0,0,6.7,9.1,1.4,1.4,0,0,1,.9,1.7A1.29,1.29,0,0,1,641.4,220.27Z" style="fill: #5874f2"/>
          <polygon points="686.1 183.87 679.4 173.67 582.7 236.97 583.4 237.97 578 245.67 579.6 248.07 588.8 246.17 589.4 247.27 686.1 183.87" style="fill: #ffb114"/>
          <rect x="581.89" y="204.6" width="105.1" height="12.26" transform="translate(-11.83 381.79) rotate(-33.2)" style="fill: #ffe75c"/>
          <rect x="597.78" y="227.17" width="4" height="12.49" transform="translate(-29.9 366.52) rotate(-33.2)"/>
          <rect x="666.97" y="181.06" width="4" height="12.55" transform="translate(6.62 396.89) rotate(-33.2)"/>
          <circle cx="643.9" cy="209.37" r="8.4" style="fill: #7196ff"/>
          <path d="M683.4,305.37l2.7,1.9,12.5-20.1-2.7-1.9Z" style="fill: #dad7ca"/>
          <path d="M721.8,300.47l-3-1.4-11.4,20.7,2.9,1.5Z" style="fill: #dad7ca"/>
          <path d="M679.3,269.57c-.7-.8-1.3-1.7-2-2.6l-17.2,16.5,2.1,2.5Z" style="fill: #dad7ca"/>
          <path d="M642.6,256l1.5,3,20.1-12.7-1.5-3Z" style="fill: #dad7ca"/>
        </g>
        <path d="M811.3,137.47a11.52,11.52,0,0,0,5-7.8l.8-5.4a.59.59,0,0,1,.6-.5h0a.5.5,0,0,1,.5.5l.8,5.4a11.33,11.33,0,0,0,5.1,7.8l.7.4a.82.82,0,0,1,.2.5h0a.85.85,0,0,1-.2.5l-.7.4a11.31,11.31,0,0,0-5.1,7.8l-.8,5.5c0,.2-.3.4-.5.4h0a.7.7,0,0,1-.6-.4l-.8-5.5a11.47,11.47,0,0,0-5-7.8l-.7-.4a.5.5,0,0,1-.3-.5h0a.48.48,0,0,1,.3-.5Z" style="fill: #ffe75c"/>
        <path d="M391.3,194.67a20.28,20.28,0,0,0,8.9-13.8l1.4-9.6a1.11,1.11,0,0,1,1-.9h0a.9.9,0,0,1,.9.9l1.5,9.6a19.91,19.91,0,0,0,8.9,13.8l1.2.8a.9.9,0,0,1,.5.8h0a1.1,1.1,0,0,1-.5.9l-1.2.8a19.68,19.68,0,0,0-8.9,13.7l-1.5,9.7a.9.9,0,0,1-.9.8h0a1.11,1.11,0,0,1-1-.8l-1.4-9.7a20.1,20.1,0,0,0-8.9-13.7l-1.3-.8a1,1,0,0,1-.4-.9h0c0-.3.1-.7.4-.8Z" style="fill: #ffaed7"/>
        <path d="M581.9,126.67a9.91,9.91,0,0,0,4.7-7.2l.8-5.1a.5.5,0,0,1,.5-.5h0a.5.5,0,0,1,.5.5l.8,5.1a9.91,9.91,0,0,0,4.7,7.2l.6.5c.2.1.3.2.3.4h0a.5.5,0,0,1-.3.5l-.6.4a10.09,10.09,0,0,0-4.7,7.3l-.8,5.1c0,.2-.3.4-.5.4h0a.5.5,0,0,1-.5-.4l-.8-5.1a10.09,10.09,0,0,0-4.7-7.3l-.7-.4a.85.85,0,0,1-.2-.5h0a.48.48,0,0,1,.2-.4Z" style="fill: #7196ff"/>
        <path d="M661,333.17a10.69,10.69,0,0,0,5-7.7l.9-5.5a.5.5,0,0,1,.5-.5h0a.5.5,0,0,1,.5.5l.9,5.5a10.69,10.69,0,0,0,5,7.7l.7.5a.82.82,0,0,1,.2.5h0a.49.49,0,0,1-.2.4l-.7.5a11.11,11.11,0,0,0-5,7.8l-.9,5.4a.5.5,0,0,1-.5.5h0a.5.5,0,0,1-.5-.5l-.9-5.4a11.11,11.11,0,0,0-5-7.8l-.7-.5a.49.49,0,0,1-.2-.4h0a.82.82,0,0,1,.2-.5Z" style="fill: #8cd9ff"/>
      </g>
    </g>
  </g>
</svg>
