<svg xmlns="http://www.w3.org/2000/svg" width="910" height="410" viewBox="0 0 910 410">
  <g id="Banner-Product_Features-Left" data-name="Banner-Product&amp;Features-Left">
    <g id="engineering-right">
      <g>
        <g>
          <path d="M565.42,123.07a7.3,7.3,0,0,0-7.3-7.3H558a7.3,7.3,0,0,0-10.3-10.3h-.1a7.3,7.3,0,1,0-14.6,0h-.1a7.32,7.32,0,1,0-10.4,10.3h0a7.3,7.3,0,1,0,0,14.6h.2l-.2.2a7.4,7.4,0,0,0,0,10.3,7.51,7.51,0,0,0,10.4,0h.1a7.3,7.3,0,1,0,14.6,0h.1a7.4,7.4,0,0,0,10.3,0,7.19,7.19,0,0,0,.12-10.18l-.12-.12c0-.1-.1-.1-.1-.2h.2a7.3,7.3,0,0,0,7.3-7.3Z" style="fill: #1927bc"/>
          <rect x="323.72" y="218.97" width="203.5" height="130.36" rx="10.6" style="fill: #8cd9ff"/>
          <path d="M334.32,219h182.2a10.59,10.59,0,0,1,10.6,10.6h0v19.7H323.72v-19.6a10.6,10.6,0,0,1,10.6-10.6h0Z" style="fill: #fff"/>
          <circle cx="338.82" cy="234.17" r="6.5" style="fill: #ff78b9"/>
          <circle cx="378.42" cy="234.17" r="6.5" style="fill: #57f287"/>
          <path d="M512,230.47a3.7,3.7,0,0,1,3.7,3.7,3.8,3.8,0,0,1-3.7,3.7h-87.6a3.7,3.7,0,0,1-3.7-3.7,3.6,3.6,0,0,1,3.5-3.7H512m0-2.8h-87.6a6.5,6.5,0,0,0,0,13H512a6.5,6.5,0,0,0,0-13Z" style="fill: #8cd9ff"/>
          <circle cx="358.62" cy="234.17" r="6.5" style="fill: #ffe75c"/>
          <rect x="332.42" y="258.07" width="52.5" height="83.17" rx="2.8" style="fill: #fff"/>
          <rect x="396.92" y="258" width="121.5" height="16.87" rx="2.8" style="fill: #66bcff"/>
          <rect x="396.92" y="281" width="121.5" height="16.87" rx="2.8" style="fill: #66bcff"/>
          <rect x="396.92" y="304" width="121.5" height="37.17" rx="2.8" style="fill: #66bcff"/>
          <path d="M495.52,305.37l-13.2,6.3a1.21,1.21,0,0,1-1.59-.59,1.3,1.3,0,0,1-.11-.51v-17a1.21,1.21,0,0,1,1.18-1.23,1.23,1.23,0,0,1,.72.23l13.2,10.9a1.1,1.1,0,0,1-.2,1.9Z" style="fill: #fff"/>
          <path d="M485,305.13l3.62-1.71h0l6,12.74a.7.7,0,0,1-.33.94l-2.26,1.06a.69.69,0,0,1-.93-.33l-6-12.75Z" style="fill: #fff"/>
          <circle cx="540.32" cy="123.07" r="8.6" style="fill: #404eed"/>
          <path d="M335.22,166.87a5.2,5.2,0,0,0,2.5-6.9h.1a5.21,5.21,0,0,0,3.54-9.79h0a5.2,5.2,0,0,0-4.4-9.4h0a5.39,5.39,0,0,0-3.2-6.7,5.21,5.21,0,0,0-6.6,3.1H327a5.2,5.2,0,1,0-9.68,3.8c.08.2.18.4.28.6a.11.11,0,0,0,.1.1h-.2a5.2,5.2,0,0,0-3.5,9.7h0a5.2,5.2,0,1,0,3.8,9.68,4.11,4.11,0,0,0,.6-.28h0a5.21,5.21,0,0,0,9.79,3.54v0h.1A5.1,5.1,0,0,0,335,167Z" style="fill: #8cd9ff"/>
          <circle cx="327.62" cy="150.77" r="6.1" style="fill: #404eed"/>
          <path d="M392.52,126.17a3.41,3.41,0,0,0,1.76-4.48l-.06-.12h.1a3.49,3.49,0,0,0,2.32-6.59h0a3.51,3.51,0,1,0-2.9-6.4h0a.1.1,0,0,1-.1.1h0a3.5,3.5,0,0,0-2-4.5,3.6,3.6,0,0,0-4.5,2.1H387a3.5,3.5,0,0,0-4.6-1.7,3.6,3.6,0,0,0-1.7,4.7h0a3.51,3.51,0,0,0-2.4,6.6h0a3.6,3.6,0,0,0-1.7,4.7,3.41,3.41,0,0,0,4.52,1.64l.08,0h.1a3.4,3.4,0,0,0,2,4.37l.09,0a3.3,3.3,0,0,0,4.32-1.78,2,2,0,0,0,.08-.22h.1a3.41,3.41,0,0,0,4.52,1.64Z" style="fill: #1927bc"/>
          <circle cx="387.52" cy="115.37" r="4.1" style="fill: #404eed"/>
          <path d="M464.32,190.07a6.21,6.21,0,0,0,6.21-6.2,1.34,1.34,0,0,0,0-.2h.1a6.3,6.3,0,0,0,8.7-9.1.11.11,0,0,1-.1-.1h.1a6.2,6.2,0,0,0,6.2-6.2v-.1a6.29,6.29,0,0,0-6.4-6.2h0a6.3,6.3,0,0,0-9.1-8.7h-.1v-.2a6.3,6.3,0,0,0-12.5.3h-.1a6.3,6.3,0,0,0-9.07,8.75l.37.35h-.1a6.3,6.3,0,0,0,.3,12.5h0a6.3,6.3,0,0,0,.2,8.9,6.21,6.21,0,0,0,8.77-.17l0,0h.1v.2a6.31,6.31,0,0,0,6.4,6.2Z" style="fill: #66bcff"/>
          <circle cx="463.92" cy="168.57" r="7.4" style="fill: #404eed"/>
        </g>
        <g>
          <path d="M71.12,294.57a10.62,10.62,0,0,1,8.1-4.6H190c3.3,0,4.6,2.3,2.8,5.1l-45.4,74a7.39,7.39,0,0,1-6.2,3.5H69.12c-20.1,0-32.4-22.1-21.9-39.2Z"/>
          <path d="M95.22,269.47a1.6,1.6,0,0,0-1.6,1.2,215.6,215.6,0,0,1-36.4,77.9l-5.7,7.6h81l5.6-7.6a214.54,214.54,0,0,0,36.4-77.5,1.3,1.3,0,0,0-1-1.57,1.87,1.87,0,0,0-.34,0Z" style="fill: #fff"/>
          <circle cx="199.32" cy="178.07" r="74.4" style="fill: #1927bc"/>
          <path d="M152,235.47a74.31,74.31,0,0,0,90.7,3v-17.6H152Z" style="fill: #0ec2bc"/>
          <path d="M144,368.87l-21.6-61.7a9.2,9.2,0,0,0-8-5.7H61a10.43,10.43,0,0,1-7.8-3.4l-4.8-5.4a9.29,9.29,0,0,0-6.1-2.7H15.42a3,3,0,0,0-3.24,2.73,3.08,3.08,0,0,0,.24,1.47l2.6,7.3H4.32c-3.3,0-5.1,2.6-4,5.7L21.62,368a6.81,6.81,0,0,0,6.4,4.6h113.7a6.3,6.3,0,0,0,5.4-3.1l.2-.3a1.8,1.8,0,0,1-2.43.73A1.84,1.84,0,0,1,144,368.87Z" style="fill: #ffc619"/>
          <path d="M140.62,128.67c8.3-.9,18.3,2.8,28.9,26.9l-35.4,11.7C128,140.27,132.32,129.57,140.62,128.67Z" style="fill: #34f4cf"/>
          <ellipse cx="142.67" cy="150.53" rx="5.2" ry="9.6" transform="translate(-31 37.16) rotate(-13.4)"/>
          <path d="M185.82,119.17c7.2-2.1,21.2.9,38.8,40.6l-47.8-9.3C173.42,129,178.82,121.07,185.82,119.17Z" style="fill: #34f4cf"/>
          <path d="M107.32,200.87c5.1,26.1,42.5,43.5,83.5,39.6s71.6-27.8,68.5-54-40.4-45.9-83.4-41.9S102.12,174.07,107.32,200.87Z" style="fill: #34f4cf"/>
          <path d="M131.52,175.47l13.6,11.5,45.4-16.7c-2.9,23.2,4.3,71.5,24.1,65.3a115,115,0,0,1-23.8,4.9c-18.4,1.7-36.1-.8-50.4-6.5C116.52,224.57,116.92,193.07,131.52,175.47Z" style="fill: #adfddc"/>
          <path d="M131.52,175.47c19.7.7,35.6-.7,59-5.2-16.5,13.8-29.3,26.5-47.3,25.8C127.72,195.47,129.92,181.57,131.52,175.47Z" style="fill: #9e0960"/>
          <path d="M190.52,170.27c-8.9,1.7-16.7,3-24,3.9a30.72,30.72,0,0,0-6.8,12.2,24.49,24.49,0,0,0-1,6.8C169.52,188.77,179.12,179.77,190.52,170.27Z"/>
          <path d="M187,170c.7,8.5,9.3,16.4,17.6,14.7s8.8-9.7,5-16.4c-3-5.2-8.7-8.7-13.6-8.7S186.42,163.57,187,170Z" style="fill: #4c7dff"/>
          <path d="M120.32,174.17c-4,7,0,10.3,6.7,6.7,4.6-2.5,8-7.1,8.6-10.4s-.7-4.8-3.4-4.8S123.32,169,120.32,174.17Z" style="fill: #4c7dff"/>
          <path d="M194.32,146.67c-4.3-.1-8.2.1-11,.3a21.14,21.14,0,0,1-1-5.1c-.4-5.9,2-10.2,5.3-9.6s6.3,5.7,6.7,11.6A13.1,13.1,0,0,1,194.32,146.67Z"/>
          <path d="M153,197.67c-2,16.7,3.1,46-6.5,79.3a32.45,32.45,0,0,1-5.7,11.1h0a13.2,13.2,0,0,1-18.52,2.33q-.55-.43-1.08-.93h0a13.42,13.42,0,0,1-3.1-14.1c6.2-16.9,10.5-34,14.3-60.1,4.3-29,21-35.5,44.3-33.5-6.9,5.5-13.6,10.1-20.8,12.5A4.1,4.1,0,0,0,153,197.67Z" style="fill: #ff78b9"/>
          <path d="M155.72,183.17a20,20,0,0,0-13.8,14.1c-1.4,5.2-2.1,11.7-2.3,19.7-.2,18.5-.5,36-9.9,60.6a1.61,1.61,0,0,0,.5,1.7,1.2,1.2,0,0,0,.8.2,1.39,1.39,0,0,0,1.3-.8c9.6-25.1,9.8-42.8,10.1-61.6.3-22.1,4.9-31.8,17.3-34.8A25.12,25.12,0,0,0,155.72,183.17Z"/>
          <path d="M271,197.87c-33.6-15.4-46,5.6-48.3,34.7-.4,5.3-.8,10.9-1.1,16.5A74.72,74.72,0,0,0,271,197.87Z" style="fill: #0ec2bc"/>
        </g>
        <path d="M272.92,273.87a13.16,13.16,0,0,1-5.7-8.9l-.9-6.2a.59.59,0,0,0-.6-.5h0a.6.6,0,0,0-.6.5l-1,6.2a12.78,12.78,0,0,1-5.7,8.9l-.8.5a.52.52,0,0,0-.3.5h0a.61.61,0,0,0,.3.6l.8.5a12.57,12.57,0,0,1,5.7,8.9l1,6.1a.6.6,0,0,0,.6.6h0q.51,0,.6-.6l.9-6.1a12.94,12.94,0,0,1,5.7-8.9l.8-.5a.58.58,0,0,0,.3-.6h0a.49.49,0,0,0-.3-.5Z" style="fill: #ffe75c"/>
        <path d="M585.12,240a12.82,12.82,0,0,1-5.7-8.9l-.9-6.2a.8.8,0,0,0-.7-.5h0a.6.6,0,0,0-.6.5l-.9,6.2a13.09,13.09,0,0,1-5.7,8.9l-.8.5a.51.51,0,0,0-.3.5h0a.94.94,0,0,0,.3.6l.8.5a12.89,12.89,0,0,1,5.7,8.8l.9,6.2c.1.3.3.6.6.6h0a.9.9,0,0,0,.7-.6l.9-6.2a12.61,12.61,0,0,1,5.7-8.8l.8-.5a.89.89,0,0,0,.3-.6h0a.49.49,0,0,0-.3-.5Z" style="fill: #fff"/>
        <path d="M71.22,206.87a28.84,28.84,0,0,1-13-20.1l-2.1-14a1.39,1.39,0,0,0-1.4-1.2h0a1.39,1.39,0,0,0-1.4,1.2l-2.1,14a28.78,28.78,0,0,1-13,20.1l-1.8,1.2a1.33,1.33,0,0,0-.6,1.2h0a1.33,1.33,0,0,0,.6,1.2l1.8,1.2a28.78,28.78,0,0,1,13,20.1l2.1,14a1.4,1.4,0,0,0,1.4,1.2h0a1.4,1.4,0,0,0,1.4-1.2l2.1-14a28.84,28.84,0,0,1,13-20.1l1.8-1.2a1.4,1.4,0,0,0,.7-1.2h0a1.39,1.39,0,0,0-.7-1.2Z" style="fill: #ff78b9"/>
      </g>
    </g>
  </g>
</svg>
