<svg width="24" height="24" viewBox="0 0 24 24" fill="none" xmlns="http://www.w3.org/2000/svg">
<mask id="mask0" mask-type="alpha" maskUnits="userSpaceOnUse" x="2" y="2" width="20" height="20">
<path d="M2 2.00635H21.9937V21.9977H2V2.00635Z" fill="white"/>
</mask>
<g mask="url(#mask0)">
<path fill-rule="evenodd" clip-rule="evenodd" d="M11.9969 2.00635C9.28187 2.00635 8.94143 2.01786 7.87516 2.06651C6.81111 2.11504 6.0844 2.28405 5.44853 2.53119C4.79115 2.78663 4.23365 3.12845 3.67786 3.6842C3.1221 4.24 2.78028 4.7975 2.52484 5.45488C2.2777 6.09075 2.10869 6.81746 2.06016 7.88151C2.01151 8.94778 2 9.28821 2 12.0032C2 14.7182 2.01151 15.0586 2.06016 16.1249C2.10869 17.1889 2.2777 17.9156 2.52484 18.5515C2.78028 19.2089 3.1221 19.7664 3.67786 20.3222C4.23365 20.8779 4.79115 21.2198 5.44853 21.4752C6.0844 21.7223 6.81111 21.8913 7.87516 21.9399C8.94143 21.9885 9.28187 22 11.9969 22C14.7118 22 15.0523 21.9885 16.1185 21.9399C17.1826 21.8913 17.9093 21.7223 18.5452 21.4752C19.2025 21.2198 19.76 20.8779 20.3158 20.3222C20.8716 19.7664 21.2134 19.2089 21.4689 18.5515C21.716 17.9156 21.885 17.1889 21.9335 16.1249C21.9822 15.0586 21.9937 14.7182 21.9937 12.0032C21.9937 9.28821 21.9822 8.94778 21.9335 7.88151C21.885 6.81746 21.716 6.09075 21.4689 5.45488C21.2134 4.7975 20.8716 4.24 20.3158 3.6842C19.76 3.12845 19.2025 2.78663 18.5452 2.53119C17.9093 2.28405 17.1826 2.11504 16.1185 2.06651C15.0523 2.01786 14.7118 2.00635 11.9969 2.00635ZM11.9969 3.80758C14.6661 3.80758 14.9823 3.81778 16.0364 3.86587C17.0111 3.91032 17.5404 4.07317 17.8927 4.21008C18.3593 4.39143 18.6923 4.60805 19.0421 4.9579C19.392 5.3077 19.6086 5.64071 19.79 6.10734C19.9269 6.4596 20.0897 6.98893 20.1342 7.96361C20.1823 9.01774 20.1925 9.33393 20.1925 12.0032C20.1925 14.6725 20.1823 14.9887 20.1342 16.0428C20.0897 17.0175 19.9269 17.5468 19.79 17.899C19.6086 18.3657 19.392 18.6987 19.0421 19.0485C18.6923 19.3983 18.3593 19.615 17.8927 19.7963C17.5404 19.9332 17.0111 20.0961 16.0364 20.1405C14.9825 20.1886 14.6663 20.1988 11.9969 20.1988C9.32738 20.1988 9.01127 20.1886 7.95726 20.1405C6.98258 20.0961 6.45325 19.9332 6.10099 19.7963C5.63437 19.615 5.30135 19.3983 4.95155 19.0485C4.60175 18.6987 4.38508 18.3657 4.20373 17.899C4.06683 17.5468 3.90397 17.0175 3.85952 16.0428C3.81143 14.9887 3.80123 14.6725 3.80123 12.0032C3.80123 9.33393 3.81143 9.01774 3.85952 7.96361C3.90397 6.98893 4.06683 6.4596 4.20373 6.10734C4.38508 5.64071 4.60171 5.3077 4.95155 4.9579C5.30135 4.60805 5.63437 4.39143 6.10099 4.21008C6.45325 4.07317 6.98258 3.91032 7.95726 3.86587C9.01139 3.81778 9.32758 3.80758 11.9969 3.80758Z" fill="white"/>
</g>
<path fill-rule="evenodd" clip-rule="evenodd" d="M11.9968 15.3354C10.1564 15.3354 8.66454 13.8435 8.66454 12.0032C8.66454 10.1628 10.1564 8.67086 11.9968 8.67086C13.8372 8.67086 15.3291 10.1628 15.3291 12.0032C15.3291 13.8435 13.8372 15.3354 11.9968 15.3354ZM11.9968 6.86963C9.16165 6.86963 6.86331 9.16796 6.86331 12.0032C6.86331 14.8383 9.16165 17.1367 11.9968 17.1367C14.832 17.1367 17.1303 14.8383 17.1303 12.0032C17.1303 9.16796 14.832 6.86963 11.9968 6.86963Z" fill="white"/>
<path fill-rule="evenodd" clip-rule="evenodd" d="M18.5328 6.66693C18.5328 7.32947 17.9957 7.86653 17.3331 7.86653C16.6706 7.86653 16.1335 7.32947 16.1335 6.66693C16.1335 6.00439 16.6706 5.46729 17.3331 5.46729C17.9957 5.46729 18.5328 6.00439 18.5328 6.66693Z" fill="white"/>
</svg>
