<svg width="24" height="24" viewBox="0 0 24 24" fill="none" xmlns="http://www.w3.org/2000/svg">
<path fill-rule="evenodd" clip-rule="evenodd" d="M21.3766 4.10492C22.4093 4.38269 23.2225 5.20114 23.4985 6.24051C24 8.12423 24 12.0546 24 12.0546C24 12.0546 24 15.9849 23.4985 17.8689C23.2225 18.9081 22.4093 19.7266 21.3766 20.0045C19.505 20.5092 12 20.5092 12 20.5092C12 20.5092 4.49496 20.5092 2.62336 20.0045C1.59082 19.7266 0.777545 18.9081 0.501545 17.8689C0 15.9849 0 12.0546 0 12.0546C0 12.0546 0 8.12423 0.501545 6.24051C0.777545 5.20114 1.59082 4.38269 2.62336 4.10492C4.49496 3.6001 12 3.6001 12 3.6001C12 3.6001 19.505 3.6001 21.3766 4.10492ZM15.8182 12.0547L9.54551 15.6231V8.48608L15.8182 12.0547Z" fill="white"/>
</svg>
